<?xml version="1.0" encoding="UTF-8"?>
<svg version="1.1" xmlns="http://www.w3.org/2000/svg" width="1280" height="1280">
<path d="M0 0 C422.4 0 844.8 0 1280 0 C1280 422.4 1280 844.8 1280 1280 C857.6 1280 435.2 1280 0 1280 C0 857.6 0 435.2 0 0 Z " fill="#FEFEFE" transform="translate(0,0)"/>
<path d="M0 0 C77.22 0 154.44 0 234 0 C232.22019672 3.55960657 230.53376151 5.92865821 228 8.9375 C222.83440504 15.17098238 217.84639109 21.5150946 213 28 C211.81857422 29.5778125 211.81857422 29.5778125 210.61328125 31.1875 C199.71278083 46.28904218 193.06438 62.6454542 192.79467773 81.48608398 C192.77473251 82.72684189 192.75478729 83.96759979 192.73423767 85.24595642 C192.71726017 86.57933431 192.70038112 87.91271345 192.68359375 89.24609375 C192.66299168 90.62615027 192.64199443 92.00620094 192.62062073 93.38624573 C192.56573558 96.99794748 192.51618005 100.60970297 192.46777344 104.22149658 C192.41731149 107.91529048 192.36175504 111.60900748 192.30664062 115.30273438 C192.19947028 122.53509091 192.09793611 129.7675119 192 137 C192.63839813 137.05745895 193.27679626 137.11491791 193.93453979 137.17411804 C199.07773709 137.65886737 204.11799697 138.29059508 209.1953125 139.26953125 C210.47921875 139.51606445 211.763125 139.76259766 213.0859375 140.01660156 C214.43244578 140.28111775 215.77879725 140.54643324 217.125 140.8125 C217.81851563 140.94893921 218.51203125 141.08537842 219.2265625 141.22595215 C223.82154339 142.13228458 228.41194541 143.05923776 233 144 C234.23508301 144.25305908 234.23508301 144.25305908 235.49511719 144.51123047 C249.43902901 147.4602485 263.0063269 152.3680425 276.52001953 156.84716797 C278.56641304 157.52508786 280.61382898 158.19995859 282.66357422 158.86767578 C314.10620729 169.1199629 344.94155743 184.60467845 373 202 C374.50727789 202.9188463 376.01506838 203.8368524 377.5234375 204.75390625 C385.28265876 209.50095482 392.73543988 214.51731311 400 220 C401.25736048 220.93810615 402.5152076 221.87556027 403.7734375 222.8125 C407.86016427 225.86022011 411.93180459 228.92760764 416 232 C416.6285791 232.47324707 417.2571582 232.94649414 417.90478516 233.43408203 C419.66903947 234.76420292 421.42896601 236.09982922 423.1875 237.4375 C424.19167969 238.19933594 425.19585938 238.96117187 426.23046875 239.74609375 C429 242 429 242 431.36938477 244.39892578 C433.7658196 246.76844937 436.20203158 248.80597163 438.859375 250.87109375 C445.78025451 256.47719182 451.99994834 262.73448521 458.26269531 269.05688477 C460.25529758 271.06784639 462.25588933 273.07058695 464.2578125 275.07226562 C470.37911064 281.21036247 476.43414235 287.34599716 482 294 C482.87638635 295.0101724 483.75394038 296.01933328 484.6328125 297.02734375 C513.51473365 330.75309807 538.06199319 368.87137742 555 410 C555.40557129 410.9811377 555.81114258 411.96227539 556.22900391 412.97314453 C562.66083335 428.70107252 567.81077286 444.53857419 572 461 C572.23025879 461.88961426 572.46051758 462.77922852 572.69775391 463.69580078 C575.37110162 474.09694745 577.59739726 484.57993547 579.625 495.125 C579.81916504 496.1051709 580.01333008 497.0853418 580.21337891 498.09521484 C584.15864236 519.34074296 585.47876737 540.60958033 585.33618164 562.18847656 C585.31251079 565.99826264 585.31566659 569.80734577 585.32226562 573.6171875 C585.29905247 596.5204697 584.14348855 619.16458429 580.078125 641.72998047 C579.61730721 644.29278286 579.17849882 646.85870346 578.7421875 649.42578125 C577.00559877 659.46099839 574.79893572 669.20166592 572 679 C571.3798205 681.26031029 570.76002315 683.52072547 570.140625 685.78125 C559.30812572 724.52936191 544.73904602 761.44124268 524.56787109 796.28613281 C523.15397971 798.73347267 521.75601932 801.18902402 520.36328125 803.6484375 C513.24584677 816.11314533 505.01702261 827.69260655 496.38867188 839.14916992 C495.20338147 840.72893198 494.03363886 842.32033958 492.8671875 843.9140625 C484.8019165 854.88915676 475.85466365 865.08609577 466.64453125 875.109375 C464.94218348 876.90764735 464.94218348 876.90764735 464 879 C463.34 879 462.68 879 462 879 C461.74041504 879.58483154 461.48083008 880.16966309 461.21337891 880.7722168 C459.91356092 883.15870354 458.51043278 884.73302211 456.5859375 886.64453125 C455.90660156 887.32193359 455.22726562 887.99933594 454.52734375 888.69726562 C453.81707031 889.39529297 453.10679687 890.09332031 452.375 890.8125 C451.68792969 891.49892578 451.00085938 892.18535156 450.29296875 892.89257812 C445.68821615 897.45845383 440.92234185 901.78057722 436 906 C434.90603478 906.95027313 433.81227364 907.90078126 432.71875 908.8515625 C420.49394952 919.4092592 408.2311043 929.87370345 394.76074219 938.82373047 C392.85338514 940.09794653 390.96176913 941.39371525 389.0703125 942.69140625 C367.94896907 957.09487057 345.86730038 969.59576113 323 981 C322.13181641 981.43538086 321.26363281 981.87076172 320.36914062 982.31933594 C307.84011113 988.56359356 294.94027654 993.77965134 281.90332031 998.86279297 C279.32227628 999.87376699 276.74949248 1000.90228282 274.1796875 1001.94140625 C218.6946953 1024.24305784 218.6946953 1024.24305784 192 1024 C192.0384841 1031.88631731 192.09844561 1039.77217665 192.18390274 1047.65810871 C192.22297476 1051.3221363 192.25535567 1054.98593802 192.27099609 1058.65014648 C192.09894266 1088.85867115 192.09894266 1088.85867115 202 1117 C202.33241699 1117.58281738 202.66483398 1118.16563477 203.00732422 1118.76611328 C208.69450287 1128.59712838 215.29336772 1137.42738182 222.50976562 1146.17431641 C224.97835608 1149.19858237 227.36787352 1152.28245249 229.75 1155.375 C230.18054688 1155.92889404 230.61109375 1156.48278809 231.0546875 1157.0534668 C234 1160.87956915 234 1160.87956915 234 1162 C156.78 1162 79.56 1162 0 1162 C1.98058745 1158.03882509 4.34087538 1155.19366168 7.25 1151.9375 C29.1277999 1126.81231923 40.87705644 1104.39988496 41.31640625 1070.6796875 C41.33702912 1069.32633915 41.35802676 1067.97299646 41.37937927 1066.61965942 C41.43405034 1063.09184414 41.4836972 1059.56397618 41.53222656 1056.03607178 C41.58284825 1052.42243879 41.63831998 1048.80888042 41.69335938 1045.1953125 C41.80026646 1038.13027328 41.90185537 1031.06516683 42 1024 C40.95070313 1024.01820801 39.90140625 1024.03641602 38.8203125 1024.05517578 C35.64923641 1024.00937675 32.95871351 1023.75942642 29.875 1023.1171875 C28.93430664 1022.92310303 27.99361328 1022.72901855 27.02441406 1022.52905273 C26.02635742 1022.31321533 25.02830078 1022.09737793 24 1021.875 C22.93749023 1021.6469165 21.87498047 1021.41883301 20.78027344 1021.18383789 C17.5163759 1020.47182469 14.25739029 1019.74118158 11 1019 C10.08154297 1018.79133301 9.16308594 1018.58266602 8.21679688 1018.36767578 C-17.70956198 1012.3370627 -43.56244181 1003.53246433 -68 993 C-68.71575195 992.69707031 -69.43150391 992.39414063 -70.16894531 992.08203125 C-96.64946348 980.85002623 -122.32101914 967.36244183 -146 951 C-147.86244671 949.76043824 -149.7303197 948.52929152 -151.59814453 947.29785156 C-161.89262606 940.49627764 -171.7281662 933.33817307 -181.16015625 925.375 C-183.5920533 923.34117138 -186.05113218 921.37138752 -188.5625 919.4375 C-192.08642043 916.71682614 -195.58775258 913.9708436 -199.0625 911.1875 C-200.00222656 910.43855469 -200.94195312 909.68960938 -201.91015625 908.91796875 C-202.59980469 908.28503906 -203.28945313 907.65210938 -204 907 C-204 906.34 -204 905.68 -204 905 C-204.59296875 904.73574219 -205.1859375 904.47148438 -205.796875 904.19921875 C-208.08029054 902.95629575 -209.47426723 901.69598354 -211.25 899.8125 C-213.58566246 897.34386666 -216.02975243 895.09450202 -218.60546875 892.8828125 C-223.65036539 888.50098271 -228.34999578 883.7963117 -233.0625 879.0625 C-233.92166016 878.20720703 -234.78082031 877.35191406 -235.66601562 876.47070312 C-240.65261222 871.47648759 -245.43298936 866.3797533 -250 861 C-250.48090088 860.44078857 -250.96180176 859.88157715 -251.45727539 859.30541992 C-268 840.04781253 -268 840.04781253 -268 837 C-268.66 837 -269.32 837 -270 837 C-271.24584961 835.61743164 -271.24584961 835.61743164 -272.65234375 833.66015625 C-273.17586426 832.93578369 -273.69938477 832.21141113 -274.23876953 831.46508789 C-274.79935059 830.67223389 -275.35993164 829.87937988 -275.9375 829.0625 C-276.51870605 828.2470874 -277.09991211 827.4316748 -277.69873047 826.59155273 C-287.6398792 812.54239042 -296.5377934 797.97957147 -305 783 C-305.58652344 781.97132813 -306.17304688 780.94265625 -306.77734375 779.8828125 C-310.93544695 772.44896222 -314.51211531 764.76359488 -318 757 C-318.30131836 756.34161133 -318.60263672 755.68322266 -318.91308594 755.00488281 C-330.39878162 729.76066067 -338.08651408 703.03114092 -344 676 C-344.32736473 674.5688363 -344.6553614 673.13781679 -344.984375 671.70703125 C-358.41973054 609.94552439 -354.79737028 540.13059957 -340 479 C-339.72849121 477.87029785 -339.45698242 476.7405957 -339.17724609 475.57666016 C-332.86168367 449.72505098 -324.64743867 424.39721168 -313.12695312 400.36572266 C-311.93966228 397.87333784 -310.78828587 395.36632908 -309.640625 392.85546875 C-292.67368816 356.03186571 -269.17093481 322.0402232 -241.40771484 292.50488281 C-239.89264485 290.88523463 -238.39236176 289.25278687 -236.89453125 287.6171875 C-229.96812906 280.05594554 -223.04420064 272.66369584 -215.2578125 265.9765625 C-211.53466831 262.71720097 -207.93538086 259.31983364 -204.3203125 255.94140625 C-202 254 -202 254 -200 254 C-200 253.34 -200 252.68 -200 252 C-198.07890153 250.33216531 -196.14913379 248.7850795 -194.125 247.25 C-192.83972024 246.26057709 -191.55457042 245.27098536 -190.26953125 244.28125 C-189.57939941 243.75273437 -188.88926758 243.22421875 -188.17822266 242.6796875 C-185.921122 240.939175 -183.68355589 239.1758716 -181.44921875 237.40625 C-174.36036461 231.805614 -167.34171937 226.31907874 -159.609375 221.62109375 C-156.6343528 219.77283894 -153.79630442 217.7732086 -150.9375 215.75 C-114.12162691 189.95846318 -73.19369866 170.5744894 -31 155.4375 C-29.96875 155.06496094 -28.9375 154.69242188 -27.875 154.30859375 C-17.2666923 150.65873833 -6.47812877 147.73399304 4.38500977 144.96289062 C6.69596472 144.37283872 9.00525816 143.7765857 11.31445312 143.1796875 C31.91924162 137.87707198 31.91924162 137.87707198 42 138 C41.91500081 130.27094848 41.81989723 122.54208979 41.71247292 114.81332111 C41.66287741 111.22316027 41.61654981 107.63302376 41.578125 104.04272461 C41.54080081 100.56717867 41.49432556 97.09185689 41.44193649 93.61650658 C41.41483553 91.66883671 41.39681382 89.72104714 41.37905884 87.77326965 C40.83402696 54.30049484 25.75855615 30.6936992 3.91137695 6.54321289 C0 2.19349725 0 2.19349725 0 0 Z " fill="#A78F47" transform="translate(523,59)"/>
<path d="M0 0 C0 258.72 0 517.44 0 784 C-9.00529035 782.87433871 -9.00529035 782.87433871 -12.91796875 781.546875 C-14.19945801 781.11725464 -14.19945801 781.11725464 -15.50683594 780.67895508 C-16.39145508 780.3723999 -17.27607422 780.06584473 -18.1875 779.75 C-19.12239258 779.42990967 -20.05728516 779.10981934 -21.02050781 778.7800293 C-23.68359932 777.86242962 -26.34197391 776.93214574 -29 776 C-30.11503906 775.61972656 -31.23007812 775.23945312 -32.37890625 774.84765625 C-73.41210538 760.05337357 -110.18813371 733.96833249 -140.77734375 703.20703125 C-142.93833048 700.96586349 -142.93833048 700.96586349 -145.375 699.1875 C-148.21375898 696.82186752 -150.45912514 694.26995044 -152.8515625 691.46484375 C-154.9753212 689.02831331 -157.159601 686.66431972 -159.36743164 684.30444336 C-164.87593505 678.41220343 -170.07229909 672.3924309 -175 666 C-175.77859375 665.01644531 -176.5571875 664.03289063 -177.359375 663.01953125 C-183.24384891 655.54833657 -188.61973943 647.81718139 -193.79736328 639.84228516 C-194.94331775 638.08682994 -196.10735717 636.34496723 -197.27734375 634.60546875 C-210.06695662 615.41964861 -221.08503634 593.69129597 -228.90234375 572.01171875 C-229.83100654 569.46367957 -230.8253034 566.96645082 -231.8515625 564.45703125 C-234.29117944 558.38540985 -236.37792739 552.2091614 -238.4375 546 C-238.83291992 544.80882568 -239.22833984 543.61765137 -239.63574219 542.39038086 C-242.49691144 533.69226176 -245.15624208 524.97652376 -247.44824219 516.11181641 C-248.00011486 513.9995604 -248.58043355 511.89664623 -249.1640625 509.79296875 C-257.28460889 479.80865137 -261.45084789 448.90181105 -264 418 C-264.08475586 416.98260742 -264.16951172 415.96521484 -264.25683594 414.91699219 C-264.74367457 408.61138365 -264.92342817 402.32289706 -265 396 C-265.00988953 395.25621094 -265.01977905 394.51242187 -265.02996826 393.74609375 C-265.79429655 334.39345473 -261.41552443 273.96184466 -240 218 C-239.61497314 216.97608154 -239.22994629 215.95216309 -238.83325195 214.8972168 C-222.54651913 171.83155196 -201.08815916 131.03408653 -170.3125 96.47558594 C-169.12541123 95.14099433 -167.95246341 93.79385752 -166.78125 92.4453125 C-156.75846312 81.03878266 -146.01426938 70.2969378 -134 61 C-132.56818153 59.8643255 -131.13726736 58.72751039 -129.70703125 57.58984375 C-121.72750153 51.27152987 -113.79104076 45.15970889 -105 40 C-103.6392065 39.17597347 -102.2785408 38.35173587 -100.91796875 37.52734375 C-83.82875953 27.29211501 -65.91802499 18.3206487 -47 12 C-46.05866211 11.68434082 -45.11732422 11.36868164 -44.14746094 11.04345703 C-10.96003112 0 -10.96003112 0 0 0 Z " fill="#FEFEFE" transform="translate(565,248)"/>
<path d="M0 0 C18.15953596 4.53988399 34.84257786 9.79097064 52 17 C52.77134277 17.32371582 53.54268555 17.64743164 54.33740234 17.98095703 C70.68378436 24.90309555 86.52600717 32.85587744 101.24462891 42.81396484 C103.10676906 44.07213965 104.98091996 45.31118283 106.85546875 46.55078125 C119.58002952 55.04780992 131.46717268 64.55243134 142.7265625 74.9140625 C144.24327546 76.30568573 145.78007957 77.6757211 147.3359375 79.0234375 C159.11050889 89.27379253 169.38278577 100.94892871 178.77685547 113.38720703 C179.91092616 114.88255054 181.06594852 116.36194126 182.22265625 117.83984375 C192.67033588 131.35925496 201.7733037 145.9407092 209.89306641 160.96166992 C210.71461559 162.47448734 211.54667603 163.98160646 212.38427734 165.4855957 C232.02164521 200.92237835 244.94770191 239.60729938 253.38427734 279.125 C253.9429316 281.73352993 254.52497027 284.33553923 255.11328125 286.9375 C257.35705215 297.14946627 258.81852783 307.44436399 260.125 317.8125 C260.28371582 319.06820801 260.44243164 320.32391602 260.60595703 321.61767578 C261.10478802 325.74207964 261.56357465 329.86861263 262 334 C262.13400711 335.24165421 262.13400711 335.24165421 262.27072144 336.50839233 C263.96598745 352.57856747 264.36299566 368.53577402 264.3125 384.6875 C264.31034485 385.93423492 264.3081897 387.18096985 264.30596924 388.46548462 C264.19261165 429.50584445 260.14539562 470.14253837 250 510 C249.54524427 511.85148181 249.09082828 513.70304709 248.63671875 515.5546875 C243.71265357 535.30814611 237.69354729 554.7815282 229.97021484 573.62695312 C228.91014775 576.21976947 227.87180142 578.82085693 226.83203125 581.421875 C209.42696111 624.49960481 187.37108356 666.12793074 155.48046875 700.2734375 C153.89796075 702.01295024 152.36599299 703.80078871 150.90625 705.64453125 C149.15891683 707.80363351 147.42789454 709.52527988 145.3125 711.3125 C143.20739485 713.1064491 141.11295425 714.89599944 139.078125 716.76953125 C109.14489557 744.32434517 71.1473024 762.71845574 32 773 C30.46061136 773.4246006 28.92157184 773.8504682 27.3828125 774.27734375 C25.734585 774.72733241 24.0861484 775.17655588 22.4375 775.625 C21.69411377 775.8314917 20.95072754 776.0379834 20.18481445 776.25073242 C13.42868462 778.05388127 7.04534347 778.916101 0 780 C0 522.6 0 265.2 0 0 Z " fill="#FEFEFE" transform="translate(715,252)"/>
<path d="M0 0 C0 258.72 0 517.44 0 784 C-5.64021306 783.29497337 -9.79114138 782.62776832 -15 781 C-11.0186217 779.6728739 -7.14954773 779.93084087 -3 780 C-3.33 780.99 -3.66 781.98 -4 783 C-3.01 783 -2.02 783 -1 783 C-1.33 526.59 -1.66 270.18 -2 6 C-2.99 6.33 -3.98 6.66 -5 7 C-5.33 5.68 -5.66 4.36 -6 3 C-8.97 3 -11.94 3 -15 3 C-15 2.67 -15 2.34 -15 2 C-13.62705778 1.65828994 -12.25149882 1.32708883 -10.875 1 C-10.10929688 0.814375 -9.34359375 0.62875 -8.5546875 0.4375 C-6 0 -6 0 0 0 Z " fill="#F9F2D8" transform="translate(565,248)"/>
<path d="M0 0 C77.22 0 154.44 0 234 0 C233.67 0.66 233.34 1.32 233 2 C120.14 2.495 120.14 2.495 5 3 C7.48432479 7.14054132 9.56698151 9.75255007 13 13 C12.34 13.66 11.68 14.32 11 15 C9.16064138 12.87996003 7.32843267 10.75442773 5.5 8.625 C4.71302734 7.72007813 4.71302734 7.72007813 3.91015625 6.796875 C0 2.2265625 0 2.2265625 0 0 Z " fill="#A5914F" transform="translate(523,59)"/>
<path d="M0 0 C4.52380289 4.24963302 8.38317661 8.95520887 12 14 C12 14.33 12 14.66 12 15 C-65.22 15 -142.44 15 -222 15 C-221.34 13.68 -220.68 12.36 -220 11 C-219.34 11.66 -218.68 12.32 -218 13 C-215.07127118 13.19797824 -212.23697556 13.26915847 -209.30700684 13.25396729 C-207.94061199 13.25864726 -207.94061199 13.25864726 -206.54661322 13.26342177 C-203.47567229 13.2714378 -200.40492699 13.26506414 -197.33398438 13.25878906 C-195.13991683 13.26149733 -192.94585018 13.26505732 -190.75178528 13.26940918 C-184.77879689 13.27855505 -178.8058773 13.27497989 -172.83288765 13.26865101 C-166.59444106 13.26360236 -160.35600052 13.26827929 -154.11755371 13.27142334 C-142.96742264 13.27529993 -131.81731692 13.2690681 -120.66719192 13.25890467 C-110.55041055 13.24996874 -100.43367507 13.25152066 -90.31689453 13.26074219 C-78.57831901 13.27143693 -66.83976586 13.27543367 -55.10118532 13.26951766 C-48.88378579 13.26639278 -42.66641791 13.26600279 -36.44902039 13.27259064 C-30.6050316 13.27834982 -24.76112984 13.27439346 -18.9171505 13.26280212 C-16.76683891 13.26014787 -14.61652005 13.26093357 -12.46621132 13.26532745 C-9.54170493 13.27075427 -6.6174813 13.26398381 -3.69299316 13.25396729 C-2.40225584 13.26065945 -2.40225584 13.26065945 -1.08544302 13.26748681 C3.43209487 13.43586843 3.43209487 13.43586843 7 11 C6.4946875 10.45730469 5.989375 9.91460938 5.46875 9.35546875 C4.8190625 8.64003906 4.169375 7.92460938 3.5 7.1875 C2.52546875 6.12595703 2.52546875 6.12595703 1.53125 5.04296875 C0 3 0 3 0 0 Z " fill="#A7996B" transform="translate(745,1206)"/>
<path d="M0 0 C2.46800047 1.15173355 4.04783565 2.04783565 6 4 C3.32447017 6.67552983 1.30693634 6.24032812 -2.33032525 6.25816262 C-3.67563673 6.24942409 -3.67563673 6.24942409 -5.04812622 6.24050903 C-5.99721922 6.24221788 -6.94631222 6.24392673 -7.92416561 6.24568737 C-11.12416098 6.24899789 -14.32394953 6.23795291 -17.52392578 6.22705078 C-19.80990596 6.226487 -22.09588649 6.22680257 -24.38186646 6.22793579 C-30.60472152 6.22851162 -36.82750009 6.21672024 -43.05033731 6.20278788 C-49.54729739 6.19031868 -56.04425905 6.18911303 -62.54122925 6.18673706 C-73.45149099 6.18121924 -84.36172436 6.1687113 -95.27197266 6.15087891 C-106.51090351 6.13252837 -117.74982672 6.11836783 -128.98876953 6.10986328 C-129.68122706 6.10933783 -130.37368459 6.10881239 -131.08712567 6.10827102 C-134.56088889 6.10566099 -138.03465216 6.10313357 -141.50841546 6.10064721 C-170.33896229 6.07990476 -199.16948047 6.04452215 -228 6 C-228 5.67 -228 5.34 -228 5 C-152.1 4.67 -76.2 4.34 2 4 C1.01 2.02 1.01 2.02 0 0 Z " fill="#FEF6DE" transform="translate(754,1216)"/>
<path d="M0 0 C77.22 0 154.44 0 234 0 C233.67 0.66 233.34 1.32 233 2 C231.82256068 1.99907821 230.64512136 1.99815641 229.43200207 1.99720669 C201.4991554 1.97556164 173.56630938 1.9590659 145.63345609 1.94893467 C142.19745053 1.94768392 138.76144499 1.9463896 135.32543945 1.94506836 C134.6413756 1.94480605 133.95731175 1.94454374 133.25251869 1.94427348 C122.16768303 1.93991893 111.08285254 1.93203255 99.99801996 1.9228472 C88.62895079 1.91350471 77.25988546 1.908018 65.89081222 1.90591151 C59.50288848 1.90460502 53.11497649 1.90152304 46.7270565 1.89426994 C40.71978448 1.88750403 34.71252908 1.88538422 28.7052536 1.88689232 C26.49569674 1.88661625 24.28613935 1.88461451 22.07658577 1.88079453 C19.06919951 1.87584841 16.06187674 1.87700517 13.05448914 1.87974548 C12.1722005 1.87683264 11.28991186 1.8739198 10.38088721 1.87091869 C7.00353352 1.87928589 4.22661234 1.92446255 1 3 C0.67 2.01 0.34 1.02 0 0 Z " fill="#B4AA82" transform="translate(523,59)"/>
<path d="M0 0 C0.66 0.33 1.32 0.66 2 1 C2.02314716 8.39732867 2.04092723 15.79464955 2.05181217 23.19200706 C2.05703579 26.62671562 2.06412401 30.06139943 2.07543945 33.49609375 C2.08836035 37.44270535 2.09323252 41.38930684 2.09765625 45.3359375 C2.10281754 46.57242035 2.10797882 47.8089032 2.11329651 49.08285522 C2.11337204 50.22388702 2.11344757 51.36491882 2.11352539 52.54052734 C2.115746 53.548685 2.11796661 54.55684265 2.12025452 55.59555054 C2 58 2 58 1 60 C0.34 60 -0.32 60 -1 60 C-1.02312821 52.32463373 -1.04091753 44.64927104 -1.05181217 36.97387791 C-1.05703995 33.41022578 -1.06413569 29.84659743 -1.07543945 26.28295898 C-1.08834176 22.18993903 -1.09322906 18.0969442 -1.09765625 14.00390625 C-1.10281754 12.71851456 -1.10797882 11.43312286 -1.11329651 10.10877991 C-1.11337204 8.92763107 -1.11344757 7.74648224 -1.11352539 6.52954102 C-1.115746 5.48363297 -1.11796661 4.43772491 -1.12025452 3.36012268 C-1 1 -1 1 0 0 Z " fill="#AA925C" transform="translate(566,136)"/>
<path d="M0 0 C0.66 0 1.32 0 2 0 C2 19.14 2 38.28 2 58 C1.01 58 0.02 58 -1 58 C-1.02314782 50.73305527 -1.04092756 43.46611846 -1.05181217 36.19914436 C-1.05703565 32.82496974 -1.06412361 29.45082029 -1.07543945 26.07666016 C-1.08752436 22.19953741 -1.09323263 18.3224506 -1.09765625 14.4453125 C-1.10281754 13.23070343 -1.10797882 12.01609436 -1.11329651 10.76467896 C-1.11340981 9.08316238 -1.11340981 9.08316238 -1.11352539 7.36767578 C-1.115746 6.37728302 -1.11796661 5.38689026 -1.12025452 4.3664856 C-1 2 -1 2 0 0 Z " fill="#AB9660" transform="translate(713,138)"/>
<path d="M0 0 C2.97 0.495 2.97 0.495 6 1 C6 1.66 6 2.32 6 3 C4.02 3 2.04 3 0 3 C0 20.49 0 37.98 0 56 C-2.46726765 53.53273235 -2.27698942 52.75718499 -2.36645508 49.35424805 C-2.39600784 48.38952072 -2.42556061 47.4247934 -2.45600891 46.43083191 C-2.47697128 45.38502457 -2.49793365 44.33921722 -2.51953125 43.26171875 C-2.54601242 42.18880081 -2.57249359 41.11588287 -2.59977722 40.01045227 C-2.65253188 37.7366531 -2.70009884 35.46272863 -2.74291992 33.1887207 C-2.81201928 29.7116897 -2.90798681 26.23609083 -3.00585938 22.75976562 C-3.05372781 20.55211838 -3.10000386 18.34443591 -3.14453125 16.13671875 C-3.17561478 15.0969841 -3.2066983 14.05724945 -3.23872375 12.98600769 C-3.36493317 4.07131017 -3.36493317 4.07131017 0 0 Z " fill="#AC9963" transform="translate(715,1080)"/>
<path d="M0 0 C0 0.66 0 1.32 0 2 C-0.95261719 2.09796875 -1.90523437 2.1959375 -2.88671875 2.296875 C-4.14097656 2.44640625 -5.39523437 2.5959375 -6.6875 2.75 C-7.92886719 2.88921875 -9.17023437 3.0284375 -10.44921875 3.171875 C-14.43745055 4.10202367 -16.11764384 5.12995098 -19 8 C-19.755813 10.72512378 -19.755813 10.72512378 -19.65942383 13.77832031 C-19.67906693 14.9392218 -19.69871002 16.10012329 -19.71894836 17.29620361 C-19.71501572 18.54423767 -19.71108307 19.79227173 -19.70703125 21.078125 C-19.72215256 22.35983582 -19.73727386 23.64154663 -19.75285339 24.96209717 C-19.79268574 28.36192634 -19.80289247 31.7612199 -19.80688477 35.16125488 C-19.81621987 38.63371002 -19.85363551 42.1058509 -19.88867188 45.578125 C-19.95322874 52.38537201 -19.98648427 59.19246554 -20 66 C-20.33 66 -20.66 66 -21 66 C-21 45.21 -21 24.42 -21 3 C-5 0 -5 0 0 0 Z " fill="#F9F4DD" transform="translate(736,1080)"/>
<path d="M0 0 C0.99 0.99 1.98 1.98 3 3 C1.23342471 6.0857915 -0.53900157 9.16818305 -2.3125 12.25 C-2.81201172 13.12269531 -3.31152344 13.99539063 -3.82617188 14.89453125 C-4.31279297 15.73886719 -4.79941406 16.58320313 -5.30078125 17.453125 C-5.74591064 18.22817383 -6.19104004 19.00322266 -6.6496582 19.80175781 C-7.98464709 21.97500677 -9.43730024 23.9859428 -11 26 C-12.375 23.6875 -12.375 23.6875 -13 20 C-11.49416939 16.01397779 -9.60927008 12.37365977 -7 9 C-4.7890625 8.17578125 -4.7890625 8.17578125 -3 8 C-2.87625 7.4225 -2.7525 6.845 -2.625 6.25 C-1.99351176 3.97664233 -1.11141809 2.0746471 0 0 Z " fill="#A89352" transform="translate(361,384)"/>
<path d="M0 0 C0.66796875 1.75390625 0.66796875 1.75390625 1 4 C-0.07421875 5.96484375 -0.07421875 5.96484375 -1.6875 7.9375 C-2.24179687 8.63359375 -2.79609375 9.3296875 -3.3671875 10.046875 C-4.66943579 11.60458827 -5.98822061 13.1484726 -7.3125 14.6875 C-9.18301128 16.88765089 -9.18301128 16.88765089 -9.4375 19.625 C-10 22 -10 22 -12.25 23.75 C-14.87633399 24.94378818 -17.15385972 25.59340853 -20 26 C-16.61245017 21.36370632 -13.09446175 16.86499216 -9.4375 12.4375 C-6.10668119 8.39775691 -2.96961806 4.31073589 0 0 Z " fill="#F7F3EC" transform="translate(1017,900)"/>
<path d="M0 0 C0.33 0 0.66 0 1 0 C1.33 3.96 1.66 7.92 2 12 C2.33 12 2.66 12 3 12 C4.19937786 18.37259801 4.06475363 22.23826317 1 28 C0.34 28 -0.32 28 -1 28 C-0.96519531 29.10859375 -0.93039062 30.2171875 -0.89453125 31.359375 C-0.86638651 32.82290148 -0.83908708 34.28644439 -0.8125 35.75 C-0.78736328 36.47960937 -0.76222656 37.20921875 -0.73632812 37.9609375 C-0.69018364 41.34486604 -0.74675872 43.57858557 -2.51171875 46.515625 C-3.24841797 47.25039063 -3.24841797 47.25039063 -4 48 C-3.9498877 47.43418213 -3.89977539 46.86836426 -3.84814453 46.28540039 C-2.48584783 30.86302791 -1.21446913 15.43469208 0 0 Z " fill="#AB965E" transform="translate(978,666)"/>
<path d="M0 0 C0.33 0 0.66 0 1 0 C1.16969967 6.9008497 1.32929604 13.80188241 1.48217773 20.703125 C1.53524057 23.0462766 1.59053715 25.3893788 1.64819336 27.73242188 C1.73111187 31.11838123 1.80574606 34.50444236 1.87890625 37.890625 C1.91945885 39.43825531 1.91945885 39.43825531 1.96083069 41.01715088 C2.34682963 60.2271509 2.34682963 60.2271509 -1 66 C-2.15726278 62.44966197 -1.92411892 59.47540062 -1.59765625 55.77734375 C-0.72789947 44.72397808 -0.64300494 33.64382947 -0.4375 22.5625 C-0.3942001 20.36653013 -0.35058264 18.17056649 -0.30664062 15.97460938 C-0.20076998 10.64980587 -0.09880395 5.32493908 0 0 Z " fill="#E7E2C9" transform="translate(1108,608)"/>
<path d="M0 0 C0.33 0.66 0.66 1.32 1 2 C0.00102287 4.99693138 -0.65130253 6.02709413 -3 8 C-3.66 8 -4.32 8 -5 8 C-4.67 8.99 -4.34 9.98 -4 11 C-4.99 11.495 -4.99 11.495 -6 12 C-5.67 13.32 -5.34 14.64 -5 16 C-5.99 16.33 -6.98 16.66 -8 17 C-8.33 17.66 -8.66 18.32 -9 19 C-9.66 18.67 -10.32 18.34 -11 18 C-11 16.35 -11 14.7 -11 13 C-12.32 12.67 -13.64 12.34 -15 12 C-14.00097656 11.21753906 -13.00195312 10.43507813 -11.97265625 9.62890625 C-10.66924354 8.60680564 -9.36585961 7.58466832 -8.0625 6.5625 C-7.40314453 6.04623047 -6.74378906 5.52996094 -6.06445312 4.99804688 C-5.43603516 4.50498047 -4.80761719 4.01191406 -4.16015625 3.50390625 C-3.57886963 3.04830322 -2.99758301 2.5927002 -2.39868164 2.12329102 C-1.02763998 1.06382373 -1.02763998 1.06382373 0 0 Z " fill="#A89250" transform="translate(338,299)"/>
<path d="M0 0 C0.33 0.99 0.66 1.98 1 3 C0.67 3.598125 0.34 4.19625 0 4.8125 C-1.37075926 7.81103588 -0.71524148 9.85293749 0 13 C-0.99 13.66 -1.98 14.32 -3 15 C-3 13.68 -3 12.36 -3 11 C-4.47047336 14.91063224 -4.47047336 14.91063224 -5 19 C-5.99 19 -6.98 19 -8 19 C-8 19.66 -8 20.32 -8 21 C-8.66 21 -9.32 21 -10 21 C-10.33 21.66 -10.66 22.32 -11 23 C-11.66 23 -12.32 23 -13 23 C-11.73294681 19.63584449 -10.28886807 16.62968211 -8.3984375 13.57421875 C-7.90859375 12.77822266 -7.41875 11.98222656 -6.9140625 11.16210938 C-6.40617188 10.34548828 -5.89828125 9.52886719 -5.375 8.6875 C-4.859375 7.85154297 -4.34375 7.01558594 -3.8125 6.15429688 C-2.54512996 4.10068801 -1.27421427 2.04936659 0 0 Z M-5 16 C-3 17 -3 17 -3 17 Z " fill="#AA9756" transform="translate(240,404)"/>
<path d="M0 0 C0 4.0333534 -1.60879918 5.83517538 -4 9 C-4.66 9 -5.32 9 -6 9 C-6 9.99 -6 10.98 -6 12 C-6.66 12 -7.32 12 -8 12 C-8 12.66 -8 13.32 -8 14 C-7.34 14.33 -6.68 14.66 -6 15 C-6 16.65 -6 18.3 -6 20 C-7.65 19.67 -9.3 19.34 -11 19 C-11 18.34 -11 17.68 -11 17 C-11.66 17.66 -12.32 18.32 -13 19 C-15.125 18.625 -15.125 18.625 -17 18 C-16.43152344 17.443125 -15.86304688 16.88625 -15.27734375 16.3125 C-10.77260727 11.86040651 -6.43469324 7.34047545 -2.3125 2.53125 C-1.56874537 1.66353626 -0.8081145 0.8081145 0 0 Z " fill="#AA904B" transform="translate(294,338)"/>
<path d="M0 0 C2.64 0 5.28 0 8 0 C8.66 1.65 9.32 3.3 10 5 C10.99 4.34 11.98 3.68 13 3 C15.5 4.3125 15.5 4.3125 18 6 C18 6.99 18 7.98 18 9 C17.01 9 16.02 9 15 9 C14.01 10.485 14.01 10.485 13 12 C11.39490066 10.56354149 9.79095576 9.12579294 8.1875 7.6875 C7.29417969 6.88699219 6.40085937 6.08648437 5.48046875 5.26171875 C3.60073214 3.54775419 1.77407253 1.82122396 0 0 Z " fill="#FAF9EF" transform="translate(952,302)"/>
<path d="M0 0 C1.21236328 0.04060547 1.21236328 0.04060547 2.44921875 0.08203125 C3.06410156 0.11683594 3.67898438 0.15164063 4.3125 0.1875 C4.6425 1.5075 4.9725 2.8275 5.3125 4.1875 C6.116875 3.8471875 6.116875 3.8471875 6.9375 3.5 C10.37331901 3.04791855 12.37016694 4.51571985 15.3125 6.1875 C15.3125 6.5175 15.3125 6.8475 15.3125 7.1875 C7.28633806 6.78128936 -0.01471195 5.58902224 -7.6875 3.1875 C-5.26849268 0.20484049 -3.789448 -0.16475861 0 0 Z " fill="#AF9559" transform="translate(538.6875,1073.8125)"/>
<path d="M0 0 C0.33 0 0.66 0 1 0 C2.125 7.75 2.125 7.75 1 10 C0.01 10 -0.98 10 -2 10 C-2.99 11.485 -2.99 11.485 -4 13 C-4.99 13.33 -5.98 13.66 -7 14 C-6.67 15.98 -6.34 17.96 -6 20 C-6.99 20.33 -7.98 20.66 -9 21 C-9 20.34 -9 19.68 -9 19 C-9.66 19 -10.32 19 -11 19 C-9.01786911 14.9520098 -6.75022186 11.1154972 -4.4375 7.25 C-4.02564453 6.55261719 -3.61378906 5.85523438 -3.18945312 5.13671875 C-2.15525003 3.40684058 -1.08108939 1.70097039 0 0 Z " fill="#AA9455" transform="translate(907,902)"/>
<path d="M0 0 C1.32 0 2.64 0 4 0 C4.33 1.65 4.66 3.3 5 5 C4.34 5 3.68 5 3 5 C3 5.66 3 6.32 3 7 C3.66 7 4.32 7 5 7 C5 7.99 5 8.98 5 10 C6.98 10.66 8.96 11.32 11 12 C10.67 13.98 10.34 15.96 10 18 C9.34 18 8.68 18 8 18 C7.67 18.66 7.34 19.32 7 20 C4.36 13.73 1.72 7.46 -1 1 C-0.67 0.67 -0.34 0.34 0 0 Z " fill="#A99457" transform="translate(938,437)"/>
<path d="M0 0 C-0.33 0.99 -0.66 1.98 -1 3 C-2.84765625 3.73046875 -2.84765625 3.73046875 -5.0625 4.1875 C-5.79597656 4.34605469 -6.52945313 4.50460937 -7.28515625 4.66796875 C-8.13400391 4.83232422 -8.13400391 4.83232422 -9 5 C-7.68 5.66 -6.36 6.32 -5 7 C-5.33 7.66 -5.66 8.32 -6 9 C-9.99179743 10.33059914 -12.26317891 9.81502739 -16 8 C-15.01 7.67 -14.02 7.34 -13 7 C-13 6.34 -13 5.68 -13 5 C-15.31 5.33 -17.62 5.66 -20 6 C-16.60796525 3.7386435 -13.3273625 2.86862618 -9.4375 1.875 C-8.40979492 1.60236328 -8.40979492 1.60236328 -7.36132812 1.32421875 C-2.28847509 0 -2.28847509 0 0 0 Z " fill="#AC9659" transform="translate(756,1022)"/>
<path d="M0 0 C3.37368681 3.07513046 5.50901962 6.28518856 7.75 10.25 C8.67039062 11.86648438 8.67039062 11.86648438 9.609375 13.515625 C10.06828125 14.33546875 10.5271875 15.1553125 11 16 C10.34 16.33 9.68 16.66 9 17 C9 16.34 9 15.68 9 15 C8.34 15 7.68 15 7 15 C6.67 13.68 6.34 12.36 6 11 C3.69 11 1.38 11 -1 11 C-1.14285714 3.57142857 -1.14285714 3.57142857 0 0 Z " fill="#AA9556" transform="translate(1043,405)"/>
<path d="M0 0 C-1.24735567 0.6509259 -2.49801832 1.29551669 -3.75 1.9375 C-4.44609375 2.29714844 -5.1421875 2.65679687 -5.859375 3.02734375 C-9.92935652 4.87666017 -13.80983872 5.22466164 -18.25 5.5625 C-19.32765625 5.64628906 -20.4053125 5.73007813 -21.515625 5.81640625 C-22.74539063 5.90728516 -22.74539063 5.90728516 -24 6 C-24.33 5.34 -24.66 4.68 -25 4 C-21.58700991 3.1306619 -18.16916192 2.28220776 -14.75 1.4375 C-13.78191406 1.19064453 -12.81382812 0.94378906 -11.81640625 0.68945312 C-10.88183594 0.46064453 -9.94726562 0.23183594 -8.984375 -0.00390625 C-7.69611816 -0.32597046 -7.69611816 -0.32597046 -6.38183594 -0.65454102 C-3.90763516 -1.0133965 -2.35189657 -0.78317203 0 0 Z " fill="#AF985F" transform="translate(556,199)"/>
<path d="M0 0 C0.33 0.99 0.66 1.98 1 3 C-0.07421875 5.12109375 -0.07421875 5.12109375 -1.6875 7.4375 C-2.51894531 8.63632812 -2.51894531 8.63632812 -3.3671875 9.859375 C-5 12 -5 12 -7.3125 14.1875 C-9.28475169 15.96139612 -9.28475169 15.96139612 -9.4375 19 C-10 22 -10 22 -12.5625 24.375 C-13.366875 24.91125 -14.17125 25.4475 -15 26 C-15.66 25.67 -16.32 25.34 -17 25 C-11.69445786 16.39167005 -5.93553243 8.18076402 0 0 Z " fill="#F4EFDE" transform="translate(380,362)"/>
<path d="M0 0 C0.33 0 0.66 0 1 0 C1.22245975 2.24864725 1.42746557 4.49902623 1.625 6.75 C1.74101563 8.00296875 1.85703125 9.2559375 1.9765625 10.546875 C1.99924389 13.88860033 1.77468335 15.26775369 0 18 C-1.42257235 20.84514471 -1.32637462 23.66077359 -1.5234375 26.80859375 C-2.08682547 29.39925484 -2.99145857 30.32979577 -5 32 C-4.20744058 25.12558984 -3.0921779 18.32198391 -1.9375 11.5 C-1.75123047 10.39140625 -1.56496094 9.2828125 -1.37304688 8.140625 C-0.91684855 5.42682981 -0.45912975 2.7133005 0 0 Z " fill="#AA9A60" transform="translate(973,716)"/>
<path d="M0 0 C0.66 0.99 1.32 1.98 2 3 C2.98095748 4.01868662 3.97702078 5.02351983 5 6 C5 5.34 5 4.68 5 4 C7.475 4.99 7.475 4.99 10 6 C9.01 6.495 9.01 6.495 8 7 C8.33 9.97 8.66 12.94 9 16 C5.11807874 12.23225289 1.20468119 8.37202211 -2 4 C-2 3.34 -2 2.68 -2 2 C-1.34 2 -0.68 2 0 2 C0 1.34 0 0.68 0 0 Z " fill="#AA9452" transform="translate(886,351)"/>
<path d="M0 0 C0.33 0.66 0.66 1.32 1 2 C1.99 2 2.98 2 4 2 C4 1.34 4 0.68 4 0 C5.65 0 7.3 0 9 0 C9 0.99 9 1.98 9 3 C8.01 3.33 7.02 3.66 6 4 C5.67 4.99 5.34 5.98 5 7 C0.25 6.125 0.25 6.125 -2 5 C-2 4.34 -2 3.68 -2 3 C-5.3 3.33 -8.6 3.66 -12 4 C-8.14070855 1.42713903 -4.66785662 0 0 0 Z " fill="#A98F4F" transform="translate(502,212)"/>
<path d="M0 0 C2 2 2 2 2.1953125 3.9453125 C2.13020833 5.96354167 2.06510417 7.98177083 2 10 C2.66 9.67 3.32 9.34 4 9 C4.65555119 6.47266765 4.65555119 6.47266765 5 4 C5.99 4.66 6.98 5.32 8 6 C7.01 11.61 6.02 17.22 5 23 C3.07082085 19.14164169 2.16987145 15.67713056 1.375 11.5 C1.2409375 10.83613281 1.106875 10.17226563 0.96875 9.48828125 C0.33173636 6.2317115 0 3.33585901 0 0 Z " fill="#B19D65" transform="translate(176,716)"/>
<path d="M0 0 C2.87255066 2.42195448 3.70838919 4.59742703 4.6875 8.1875 C4.93886719 9.08855469 5.19023438 9.98960937 5.44921875 10.91796875 C5.63097656 11.60503906 5.81273437 12.29210937 6 13 C4.35 13.66 2.7 14.32 1 15 C-1.32086397 9.675665 -0.91457003 5.56157448 0 0 Z " fill="#A79453" transform="translate(1075,466)"/>
<path d="M0 0 C3 1 3 1 4 2 C4.99 2 5.98 2 7 2 C8.75 3.25 8.75 3.25 10 5 C9.875 7.0625 9.875 7.0625 9 9 C8.01 9.66 7.02 10.32 6 11 C3.69 8.03 1.38 5.06 -1 2 C-0.67 1.34 -0.34 0.68 0 0 Z " fill="#F7F7EE" transform="translate(1006,352)"/>
<path d="M0 0 C0 4.38968456 -2.12805101 5.76905739 -5 9 C-4.34 9.33 -3.68 9.66 -3 10 C-3.66 10.66 -4.32 11.32 -5 12 C-5.66 12 -6.32 12 -7 12 C-8.63676257 13.9600281 -8.63676257 13.9600281 -10 16 C-10.66 15.67 -11.32 15.34 -12 15 C-12 14.67 -12 14.34 -12 14 C-12.66 13.67 -13.32 13.34 -14 13 C-9.52647956 8.40410362 -4.91935902 4.11619836 0 0 Z " fill="#AC9557" transform="translate(309,324)"/>
<path d="M0 0 C-7.26 3.96 -14.52 7.92 -22 12 C-22.33 11.01 -22.66 10.02 -23 9 C-21.35 8.67 -19.7 8.34 -18 8 C-18 7.01 -18 6.02 -18 5 C-15.36 4.67 -12.72 4.34 -10 4 C-10 3.34 -10 2.68 -10 2 C-3.375 -1.125 -3.375 -1.125 0 0 Z " fill="#A7985D" transform="translate(882,1021)"/>
<path d="M0 0 C0.33 0.99 0.66 1.98 1 3 C-0.9375 6.1875 -0.9375 6.1875 -3 9 C-2.01 10.485 -2.01 10.485 -1 12 C-1.3125 14 -1.3125 14 -2 16 C-2.33 16.99 -2.66 17.98 -3 19 C-3.66 19 -4.32 19 -5 19 C-4.814375 18.195625 -4.62875 17.39125 -4.4375 16.5625 C-4.293125 15.716875 -4.14875 14.87125 -4 14 C-4.33 13.67 -4.66 13.34 -5 13 C-7.05396726 13.40929986 -7.05396726 13.40929986 -9 14 C-7.45158425 10.65291949 -5.50894136 7.75332488 -3.375 4.75 C-2.74335937 3.85796875 -2.11171875 2.9659375 -1.4609375 2.046875 C-0.73777344 1.03367187 -0.73777344 1.03367187 0 0 Z " fill="#AA945A" transform="translate(895,921)"/>
<path d="M0 0 C2.64 0.99 5.28 1.98 8 3 C8 3.66 8 4.32 8 5 C9.32 4.67 10.64 4.34 12 4 C12 4.99 12 5.98 12 7 C11.01 7.33 10.02 7.66 9 8 C8.34 8.66 7.68 9.32 7 10 C4.36 7.69 1.72 5.38 -1 3 C-0.67 2.01 -0.34 1.02 0 0 Z " fill="#A99352" transform="translate(850,317)"/>
<path d="M0 0 C0 0.66 0 1.32 0 2 C-1.32 2 -2.64 2 -4 2 C-4 2.99 -4 3.98 -4 5 C-5.32 5.33 -6.64 5.66 -8 6 C-8 6.66 -8 7.32 -8 8 C-13.94 8.495 -13.94 8.495 -20 9 C-16.37884524 6.28413393 -12.99445981 4.53248064 -8.875 2.8125 C-8.24207031 2.53986328 -7.60914063 2.26722656 -6.95703125 1.98632812 C-2.2675047 0 -2.2675047 0 0 0 Z " fill="#B0A16B" transform="translate(457,229)"/>
<path d="M0 0 C0.66 0.33 1.32 0.66 2 1 C2.625 3.5625 2.625 3.5625 3 6 C1.205625 5.8453125 1.205625 5.8453125 -0.625 5.6875 C-4.12228721 5.65042628 -5.68874461 6.18512961 -8.25 8.5625 C-9.1575 9.366875 -10.065 10.17125 -11 11 C-12.32 10.67 -13.64 10.34 -15 10 C-10.05 6.7 -5.1 3.4 0 0 Z " fill="#F8F5ED" transform="translate(910,1002)"/>
<path d="M0 0 C0.99 0.33 1.98 0.66 3 1 C-0.67832017 5.52615993 -4.41086363 9.39424999 -9 13 C-7.99806563 9.20696275 -7.18975773 6.28463659 -5 3 C-4.01 3 -3.02 3 -2 3 C-2 2.34 -2 1.68 -2 1 C-1.34 0.67 -0.68 0.34 0 0 Z " fill="#AA9656" transform="translate(413,321)"/>
<path d="M0 0 C3.63 0.33 7.26 0.66 11 1 C11 1.66 11 2.32 11 3 C13.64 3.33 16.28 3.66 19 4 C19 4.66 19 5.32 19 6 C20.32 6.33 21.64 6.66 23 7 C22.67 7.66 22.34 8.32 22 9 C14.74 6.36 7.48 3.72 0 1 C0 0.67 0 0.34 0 0 Z " fill="#AB9C60" transform="translate(464,1055)"/>
<path d="M0 0 C0.9075 0.391875 1.815 0.78375 2.75 1.1875 C2.87375 1.950625 2.9975 2.71375 3.125 3.5 C3.63102792 6.39017136 3.63102792 6.39017136 5.75 9.1875 C0.97390502 7.54571735 -3.04382904 4.92203298 -7.25 2.1875 C-4.52596974 -0.53653026 -3.86366821 -0.96591705 0 0 Z " fill="#A89350" transform="translate(385.25,1008.8125)"/>
<path d="M0 0 C2.06547922 3.09821883 3.56243611 6.18449352 5.125 9.5625 C5.66382813 10.71878906 6.20265625 11.87507812 6.7578125 13.06640625 C8 16 8 16 8 18 C7.34 18 6.68 18 6 18 C6 17.34 6 16.68 6 16 C5.01 16.33 4.02 16.66 3 17 C1.1582605 11.35199888 0.45224761 5.91492272 0 0 Z " fill="#AB975C" transform="translate(337,822)"/>
<path d="M0 0 C0.33 0 0.66 0 1 0 C0.67 7.92 0.34 15.84 0 24 C-0.33 24 -0.66 24 -1 24 C-1.22786458 21.94921875 -1.45572917 19.8984375 -1.68359375 17.84765625 C-1.81886614 15.98859771 -1.81886614 15.98859771 -3 15 C-3.07179964 13.48071962 -3.08392007 11.95832518 -3.0625 10.4375 C-3.05347656 9.61121094 -3.04445313 8.78492188 -3.03515625 7.93359375 C-3.02355469 7.29550781 -3.01195312 6.65742187 -3 6 C-2.34 6 -1.68 6 -1 6 C-0.67 4.02 -0.34 2.04 0 0 Z " fill="#AC955D" transform="translate(301,576)"/>
<path d="M0 0 C2.4375 0.375 2.4375 0.375 5 1 C5.33 1.66 5.66 2.32 6 3 C5.34 3 4.68 3 4 3 C4 3.66 4 4.32 4 5 C6.64 5 9.28 5 12 5 C11.01 5.33 10.02 5.66 9 6 C9 6.99 9 7.98 9 9 C4.89041233 7.54955729 1.56741255 5.48889248 -2 3 C-1.34 2.67 -0.68 2.34 0 2 C0 1.34 0 0.68 0 0 Z " fill="#A9934E" transform="translate(806,285)"/>
<path d="M0 0 C1.4002792 5.46108889 0.42705634 9.69276568 -1 15 C-1.33 15 -1.66 15 -2 15 C-1.67 11.04 -1.34 7.08 -1 3 C-1.66 3 -2.32 3 -3 3 C-3.33 4.65 -3.66 6.3 -4 8 C-4.66 8 -5.32 8 -6 8 C-5.74438677 5.6568787 -5.40729228 3.32156597 -5 1 C-3 0 -3 0 0 0 Z " fill="#AB9557" transform="translate(718,112)"/>
<path d="M0 0 C1.32 0.66 2.64 1.32 4 2 C3.06725891 3.12894876 2.12859878 4.25300876 1.1875 5.375 C0.66542969 6.00148438 0.14335938 6.62796875 -0.39453125 7.2734375 C-2 9 -2 9 -5 11 C-5.6875 9.3125 -5.6875 9.3125 -6 7 C-4.5625 4.25 -4.5625 4.25 -3 2 C-2.01 2.33 -1.02 2.66 0 3 C0 2.01 0 1.02 0 0 Z " fill="#A79558" transform="translate(981,937)"/>
<path d="M0 0 C3 0 3 0 4.6875 1.5 C5.120625 1.995 5.55375 2.49 6 3 C5.608125 3.556875 5.21625 4.11375 4.8125 4.6875 C4.4103125 5.8321875 4.4103125 5.8321875 4 7 C5.28184562 9.74832154 5.28184562 9.74832154 7 12 C6.01 12.495 6.01 12.495 5 13 C2.69 9.37 0.38 5.74 -2 2 C-1.34 1.34 -0.68 0.68 0 0 Z " fill="#AA9659" transform="translate(905,377)"/>
<path d="M0 0 C0.33 0.66 0.66 1.32 1 2 C-0.18879853 5.02772126 -1.81595342 7.59384699 -4 10 C-7.8125 11 -7.8125 11 -11 11 C-7.6381774 6.74828319 -4.25171681 3.3618226 0 0 Z " fill="#A8975B" transform="translate(321,313)"/>
<path d="M0 0 C0.66 0.33 1.32 0.66 2 1 C1.52949219 1.56847656 1.05898438 2.13695312 0.57421875 2.72265625 C-3.13807403 7.32651418 -5.98623447 11.43253059 -8 17 C-8.33 16.34 -8.66 15.68 -9 15 C-9.99 14.67 -10.98 14.34 -12 14 C-11.55269531 13.49210937 -11.10539063 12.98421875 -10.64453125 12.4609375 C-7.03713058 8.35357725 -3.47885075 4.21678879 0 0 Z " fill="#F7F3E4" transform="translate(756,61)"/>
<path d="M0 0 C0.66 1.32 1.32 2.64 2 4 C1.34 4.66 0.68 5.32 0 6 C-0.165 6.680625 -0.33 7.36125 -0.5 8.0625 C-0.7475 9.0215625 -0.7475 9.0215625 -1 10 C-1.99 10.495 -1.99 10.495 -3 11 C-3.33 10.34 -3.66 9.68 -4 9 C-5.98 9.99 -5.98 9.99 -8 11 C-5.50127818 7.1626772 -2.9156164 3.54039134 0 0 Z " fill="#AA9659" transform="translate(534,1206)"/>
<path d="M0 0 C-1.37925785 4.13777356 -4.1446357 6.07231785 -8 8 C-8 7.34 -8 6.68 -8 6 C-8.763125 6.515625 -9.52625 7.03125 -10.3125 7.5625 C-11.199375 8.036875 -12.08625 8.51125 -13 9 C-13.99 8.67 -14.98 8.34 -16 8 C-13.10414095 5.70351643 -10.1827969 3.95652443 -6.875 2.3125 C-5.57175781 1.65701172 -5.57175781 1.65701172 -4.2421875 0.98828125 C-2 0 -2 0 0 0 Z " fill="#F6F3E5" transform="translate(493,271)"/>
<path d="M0 0 C0.66 0.66 1.32 1.32 2 2 C0.54782324 3.50596108 -0.91192861 5.00462104 -2.375 6.5 C-3.18710937 7.3353125 -3.99921875 8.170625 -4.8359375 9.03125 C-7 11 -7 11 -9 11 C-9 10.01 -9 9.02 -9 8 C-8.34 8 -7.68 8 -7 8 C-6.71125 7.401875 -6.4225 6.80375 -6.125 6.1875 C-3.55172414 1.18390805 -3.55172414 1.18390805 0 0 Z " fill="#A99C57" transform="translate(974,947)"/>
<path d="M0 0 C2.96404505 2.80804268 5.44499019 5.18315774 7 9 C6.34 9 5.68 9 5 9 C5 8.34 5 7.68 5 7 C4.01 7 3.02 7 2 7 C1.34 7.66 0.68 8.32 0 9 C-2 7 -2 7 -2.125 3.875 C-2.08375 2.92625 -2.0425 1.9775 -2 1 C-1.34 0.67 -0.68 0.34 0 0 Z " fill="#F6F5EB" transform="translate(532,71)"/>
<path d="M0 0 C0.66 0.33 1.32 0.66 2 1 C-0.31 2.32 -2.62 3.64 -5 5 C-5 5.66 -5 6.32 -5 7 C-6.32 6.67 -7.64 6.34 -9 6 C-9.33 6.99 -9.66 7.98 -10 9 C-12.97 8.505 -12.97 8.505 -16 8 C-13.3810335 5.3810335 -10.35254361 4.24305325 -7 2.8125 C-6.03707031 2.38420898 -6.03707031 2.38420898 -5.0546875 1.94726562 C-3.39588841 1.23412083 -1.69936977 0.61019037 0 0 Z " fill="#F8F2E7" transform="translate(838,1043)"/>
<path d="M0 0 C2.40072955 2.88087546 4.47291037 5.56404834 6 9 C1.25 10.125 1.25 10.125 -1 9 C-0.67 7.35 -0.34 5.7 0 4 C-0.66 4 -1.32 4 -2 4 C-1.34 2.68 -0.68 1.36 0 0 Z " fill="#AD965A" transform="translate(364,876)"/>
<path d="M0 0 C-3.625 4.875 -3.625 4.875 -7 6 C-8.9375 5.625 -8.9375 5.625 -11 5 C-12.33232064 4.66264175 -13.6655274 4.32874273 -15 4 C-12.87875034 3.13656176 -10.75286928 2.28449352 -8.625 1.4375 C-6.84996094 0.72400391 -6.84996094 0.72400391 -5.0390625 -0.00390625 C-2 -1 -2 -1 0 0 Z " fill="#F7F3E5" transform="translate(812,1056)"/>
<path d="M0 0 C1.64826111 2.96687001 2.44271087 5.65626525 3 9 C1.35 9.33 -0.3 9.66 -2 10 C-2 10.66 -2 11.32 -2 12 C-2.66 12 -3.32 12 -4 12 C-3.52309796 10.37433394 -3.04340334 8.74948689 -2.5625 7.125 C-2.29566406 6.22007812 -2.02882812 5.31515625 -1.75390625 4.3828125 C-1 2 -1 2 0 0 Z " fill="#AB985C" transform="translate(203,475)"/>
<path d="M0 0 C0.66 1.32 1.32 2.64 2 4 C1.54625 4.4125 1.0925 4.825 0.625 5.25 C-1.05950374 7.06408095 -1.99265971 8.75285627 -3 11 C-4.32 10.67 -5.64 10.34 -7 10 C-3.535 5.05 -3.535 5.05 0 0 Z " fill="#AB985B" transform="translate(248,393)"/>
<path d="M0 0 C-0.33 1.65 -0.66 3.3 -1 5 C-1.99 5.33 -2.98 5.66 -4 6 C-4.33 4.68 -4.66 3.36 -5 2 C-7.97 2 -10.94 2 -14 2 C-14 1.67 -14 1.34 -14 1 C-9.32798795 -0.20568053 -4.78503708 -0.09382426 0 0 Z " fill="#F5F4E8" transform="translate(564,249)"/>
<path d="M0 0 C0.33 0.99 0.66 1.98 1 3 C-1.30074488 7.01958931 -4.13994166 9.63367886 -8.375 11.4375 C-9.674375 11.7159375 -9.674375 11.7159375 -11 12 C-7.49102731 7.81576108 -3.91939465 3.80411834 0 0 Z " fill="#FDF8EA" transform="translate(984,940)"/>
<path d="M0 0 C0.79921875 0.11085937 1.5984375 0.22171875 2.421875 0.3359375 C3.32679688 0.47902344 3.32679688 0.47902344 4.25 0.625 C1.82395248 3.05104752 0.10807224 3.38343519 -3.1875 4.25 C-4.15558594 4.51039063 -5.12367188 4.77078125 -6.12109375 5.0390625 C-8.75 5.625 -8.75 5.625 -11.75 5.625 C-11.75 4.965 -11.75 4.305 -11.75 3.625 C-5.17168675 -0.76054217 -5.17168675 -0.76054217 0 0 Z " fill="#AA9757" transform="translate(545.75,249.375)"/>
<path d="M0 0 C0.33 0 0.66 0 1 0 C1.66 5.94 2.32 11.88 3 18 C2.34 18 1.68 18 1 18 C0.67 17.34 0.34 16.68 0 16 C-0.66 16 -1.32 16 -2 16 C-1.34 10.72 -0.68 5.44 0 0 Z " fill="#F6F3E1" transform="translate(173,696)"/>
<path d="M0 0 C1.29110732 3.87332195 0.47057913 5.74177556 -0.6875 9.625 C-1.02136719 10.79289062 -1.35523438 11.96078125 -1.69921875 13.1640625 C-3 16 -3 16 -5.14453125 16.8984375 C-5.75683594 16.93195313 -6.36914062 16.96546875 -7 17 C-5.1668733 11.00067626 -2.92678249 5.55079437 0 0 Z " fill="#AC9C61" transform="translate(211,457)"/>
<path d="M0 0 C2.72426311 2.35277269 3.8141763 4.62496331 5 8 C1.98968256 8.93423645 1.13349732 9.04449911 -2 8 C-1.67 7.01 -1.34 6.02 -1 5 C-1.33 4.67 -1.66 4.34 -2 4 C-2.33 3.01 -2.66 2.02 -3 1 C-2.01 0.67 -1.02 0.34 0 0 Z " fill="#A99353" transform="translate(1054,423)"/>
<path d="M0 0 C0 4.03344263 -1.41649815 6.97722838 -4 10 C-6.38666171 11.17544367 -8.34054893 11.53971039 -11 12 C-7.49102731 7.81576108 -3.91939465 3.80411834 0 0 Z " fill="#F6F3E4" transform="translate(419,319)"/>
<path d="M0 0 C4.7517398 0.43197635 6.92000054 1.32769295 10 5 C7.875 5.75 7.875 5.75 5 6 C1.6875 4.0625 1.6875 4.0625 -1 2 C-0.67 1.34 -0.34 0.68 0 0 Z " fill="#F8F6EF" transform="translate(817,298)"/>
<path d="M0 0 C0.66 0.33 1.32 0.66 2 1 C2 1.99 2 2.98 2 4 C2.99 3.67 3.98 3.34 5 3 C7 5 7 5 7.125 8.625 C7.08375 9.73875 7.0425 10.8525 7 12 C3.32966073 8.72291137 1.30718811 5.28477792 -1 1 C-0.67 0.67 -0.34 0.34 0 0 Z " fill="#A89557" transform="translate(541,79)"/>
<path d="M0 0 C1.38480153 2.76960305 0.61874033 4.07013065 -0.25 7 C-0.62898438 8.3303125 -0.62898438 8.3303125 -1.015625 9.6875 C-2 12 -2 12 -5 14 C-5.66 13.34 -6.32 12.68 -7 12 C-4.69 8.04 -2.38 4.08 0 0 Z " fill="#F5F2DD" transform="translate(359,394)"/>
<path d="M0 0 C1.98 0.66 3.96 1.32 6 2 C6 3.65 6 5.3 6 7 C3.36 6.67 0.72 6.34 -2 6 C-2.33 5.01 -2.66 4.02 -3 3 C-0.525 3.495 -0.525 3.495 2 4 C1.34 2.68 0.68 1.36 0 0 Z " fill="#AB9153" transform="translate(515,1015)"/>
<path d="M0 0 C0.33 0 0.66 0 1 0 C1.34855655 7.62951555 1.0017506 13.92444501 -2 21 C-2.91145054 18.02977779 -3.01801972 15.93514414 -2.44140625 12.890625 C-2.30283203 12.13652344 -2.16425781 11.38242187 -2.02148438 10.60546875 C-1.87001953 9.82816406 -1.71855469 9.05085937 -1.5625 8.25 C-1.41490234 7.45722656 -1.26730469 6.66445313 -1.11523438 5.84765625 C-0.75096034 3.89702754 -0.37647488 1.9483107 0 0 Z " fill="#F3ECD8" transform="translate(1102,700)"/>
<path d="M0 0 C0 2.64 0 5.28 0 8 C0.66 8 1.32 8 2 8 C1.67 8.99 1.34 9.98 1 11 C-1.74277578 7.80009492 -3.6302836 4.99500618 -5 1 C-3 0 -3 0 0 0 Z " fill="#AA9358" transform="translate(923,400)"/>
<path d="M0 0 C5.32737077 -0.43666974 5.32737077 -0.43666974 8 0 C10.0625 2.375 10.0625 2.375 11 5 C10.67 5.66 10.34 6.32 10 7 C8.33073546 6.02526874 6.66464358 5.04510211 5 4.0625 C4.071875 3.51722656 3.14375 2.97195312 2.1875 2.41015625 C1.465625 1.94480469 0.74375 1.47945312 0 1 C0 0.67 0 0.34 0 0 Z " fill="#F7F5E2" transform="translate(876,249)"/>
<path d="M0 0 C0.99 0.33 1.98 0.66 3 1 C0.36 4.3 -2.28 7.6 -5 11 C-5.33 9.68 -5.66 8.36 -6 7 C-5.34 7 -4.68 7 -4 7 C-3.896875 6.21625 -3.79375 5.4325 -3.6875 4.625 C-3 2 -3 2 0 0 Z " fill="#A69559" transform="translate(738,80)"/>
<path d="M0 0 C1.65 0 3.3 0 5 0 C5.66 1.32 6.32 2.64 7 4 C1.25 7 1.25 7 -1 7 C-0.67 4.69 -0.34 2.38 0 0 Z " fill="#AB9252" transform="translate(826,1042)"/>
<path d="M0 0 C1.875 0.5625 1.875 0.5625 4 2 C5.25 5.625 5.25 5.625 6 9 C4.68 8.34 3.36 7.68 2 7 C2 6.34 2 5.68 2 5 C0.68 4.34 -0.64 3.68 -2 3 C-1.34 2.67 -0.68 2.34 0 2 C0 1.34 0 0.68 0 0 Z " fill="#A99356" transform="translate(317,959)"/>
<path d="M0 0 C0.33 0.66 0.66 1.32 1 2 C1.66 2 2.32 2 3 2 C3 3.65 3 5.3 3 7 C0 7 0 7 -1.38671875 5.6875 C-2.59114583 4.125 -3.79557292 2.5625 -5 1 C-3.35 0.67 -1.7 0.34 0 0 Z " fill="#AB985C" transform="translate(285,926)"/>
<path d="M0 0 C0.33 0 0.66 0 1 0 C1.39143394 1.74639757 1.76254287 3.49735918 2.125 5.25 C2.33382813 6.22453125 2.54265625 7.1990625 2.7578125 8.203125 C3.02262896 11.261328 2.72881601 12.50409344 1 15 C0.01 15.495 0.01 15.495 -1 16 C-2.125 11.25 -2.125 11.25 -1 9 C-0.77532169 7.46331135 -0.59203195 5.92031946 -0.4375 4.375 C-0.35371094 3.55773437 -0.26992187 2.74046875 -0.18359375 1.8984375 C-0.12300781 1.27195312 -0.06242187 0.64546875 0 0 Z " fill="#AB935A" transform="translate(1093,515)"/>
<path d="M0 0 C0.66 0.33 1.32 0.66 2 1 C-0.97 5.95 -0.97 5.95 -4 11 C-4.33 10.34 -4.66 9.68 -5 9 C-6.32 9 -7.64 9 -9 9 C-9 8.01 -9 7.02 -9 6 C-7.68 6 -6.36 6 -5 6 C-3.33700035 3.58944746 -3.33700035 3.58944746 -2 1 C-1.34 0.67 -0.68 0.34 0 0 Z " fill="#F8F7E8" transform="translate(233,413)"/>
<path d="M0 0 C3.24208567 0.35049575 4.61527704 0.56221181 6.8125 3.0625 C7.204375 3.701875 7.59625 4.34125 8 5 C4.04 6.98 4.04 6.98 0 9 C-0.33 8.34 -0.66 7.68 -1 7 C-0.01 7 0.98 7 2 7 C2 5.68 2 4.36 2 3 C1.34 2.67 0.68 2.34 0 2 C0 1.34 0 0.68 0 0 Z " fill="#A99255" transform="translate(884,1010)"/>
<path d="M0 0 C0.91574833 3.0906506 1.40198406 5.78412751 1 9 C-0.9375 11.125 -0.9375 11.125 -3 13 C-3.33 13.99 -3.66 14.98 -4 16 C-4.66 16 -5.32 16 -6 16 C-4.25192871 10.53262809 -2.34205919 5.24175152 0 0 Z " fill="#A99A60" transform="translate(939,838)"/>
<path d="M0 0 C0.33 0 0.66 0 1 0 C1.45732667 5.71658336 0.52273754 8.48649253 -3 13 C-3.66 12.67 -4.32 12.34 -5 12 C-3.35 8.04 -1.7 4.08 0 0 Z " fill="#F6EFDD" transform="translate(1075,797)"/>
<path d="M0 0 C3.28788824 3.11016455 5.83735988 6.01618925 8 10 C5.03 9.505 5.03 9.505 2 9 C0 2.25 0 2.25 0 0 Z " fill="#AC995F" transform="translate(1019,371)"/>
<path d="M0 0 C4.14590142 0.47112516 7.04376862 0.93427857 10 4 C10.75 6.6875 10.75 6.6875 11 9 C9.72689688 8.06558465 8.456612 7.12732889 7.1875 6.1875 C6.47980469 5.66542969 5.77210938 5.14335938 5.04296875 4.60546875 C3.21468607 3.16871123 1.60103312 1.68184237 0 0 Z " fill="#F4F0D9" transform="translate(445,970)"/>
<path d="M0 0 C0.33 0.66 0.66 1.32 1 2 C0.67 2.99 0.34 3.98 0 5 C-0.66 5 -1.32 5 -2 5 C-2 5.66 -2 6.32 -2 7 C-6.86486486 12.54054054 -6.86486486 12.54054054 -11 13 C-10.34 12.67 -9.68 12.34 -9 12 C-8.70351563 11.40703125 -8.40703125 10.8140625 -8.1015625 10.203125 C-6.83393584 7.66787169 -5.26836275 5.85373639 -3.375 3.75 C-2.74335937 3.04359375 -2.11171875 2.3371875 -1.4609375 1.609375 C-0.97882812 1.07828125 -0.49671875 0.5471875 0 0 Z " fill="#F5F0DB" transform="translate(996,926)"/>
<path d="M0 0 C1 3 1 3 0.3125 5.5 C-1.11413528 8.21740054 -2.43428575 9.37504764 -5 11 C-5.66 10.67 -6.32 10.34 -7 10 C-3.535 5.05 -3.535 5.05 0 0 Z " fill="#F7F3E1" transform="translate(1031,881)"/>
<path d="M0 0 C0.66 0.33 1.32 0.66 2 1 C0.69161864 3.002807 -0.62142194 5.00226099 -1.9375 7 C-2.49727539 7.85851562 -2.49727539 7.85851562 -3.06835938 8.734375 C-4.01944589 10.17385729 -5.00694276 11.58914489 -6 13 C-6.33 13 -6.66 13 -7 13 C-7 11.35 -7 9.7 -7 8 C-6.071875 7.6596875 -6.071875 7.6596875 -5.125 7.3125 C-2.37585439 5.6144983 -2.00115914 4.00347742 -1 1 C-0.67 0.67 -0.34 0.34 0 0 Z " fill="#A59460" transform="translate(371,372)"/>
<path d="M0 0 C0 3.28176588 -0.47835901 5.10888212 -2 8 C-4.0625 8.6875 -4.0625 8.6875 -6 9 C-6.33 9.66 -6.66 10.32 -7 11 C-7 7 -7 7 -5.46875 5.078125 C-4.8190625 4.47484375 -4.169375 3.8715625 -3.5 3.25 C-2.8503125 2.63640625 -2.200625 2.0228125 -1.53125 1.390625 C-1.0259375 0.93171875 -0.520625 0.4728125 0 0 Z " fill="#F5F3E1" transform="translate(406,332)"/>
<path d="M0 0 C1.134375 0.020625 2.26875 0.04125 3.4375 0.0625 C2.0625 2.0625 2.0625 2.0625 0.4375 4.0625 C-0.2225 4.0625 -0.8825 4.0625 -1.5625 4.0625 C-1.5625 4.7225 -1.5625 5.3825 -1.5625 6.0625 C-2.5525 6.3925 -3.5425 6.7225 -4.5625 7.0625 C-4.60504356 5.06295254 -4.60330783 3.06208364 -4.5625 1.0625 C-3.5625 0.0625 -3.5625 0.0625 0 0 Z " fill="#F8F6ED" transform="translate(324.5625,306.9375)"/>
<path d="M0 0 C0.66 0.33 1.32 0.66 2 1 C-3.445 5.455 -3.445 5.455 -9 10 C-9.33 9.01 -9.66 8.02 -10 7 C-7.48725447 3.2308817 -5.13200244 2.65280098 -1 1 C-0.67 0.67 -0.34 0.34 0 0 Z " fill="#F7F4DE" transform="translate(340,296)"/>
<path d="M0 0 C0.598125 0.165 1.19625 0.33 1.8125 0.5 C4.11344336 1.1114124 4.11344336 1.1114124 7 1 C7 2.65 7 4.3 7 6 C6.01 6.495 6.01 6.495 5 7 C3.02 5.68 1.04 4.36 -1 3 C-0.67 2.01 -0.34 1.02 0 0 Z " fill="#AC9657" transform="translate(816,292)"/>
<path d="M0 0 C6.875 3.75 6.875 3.75 8 6 C6.68 5.67 5.36 5.34 4 5 C3.67 5.99 3.34 6.98 3 8 C2.01 7.34 1.02 6.68 0 6 C-0.1875 2.875 -0.1875 2.875 0 0 Z " fill="#A89558" transform="translate(922,279)"/>
<path d="M0 0 C1.32 0 2.64 0 4 0 C5.75 2 5.75 2 7 4 C4.69 5.32 2.38 6.64 0 8 C0 5.36 0 2.72 0 0 Z " fill="#F9F7EB" transform="translate(352,281)"/>
<path d="M0 0 C-1.2065625 0.4021875 -1.2065625 0.4021875 -2.4375 0.8125 C-3.283125 1.204375 -4.12875 1.59625 -5 2 C-5.33 2.99 -5.66 3.98 -6 5 C-9.0625 6.1875 -9.0625 6.1875 -12 7 C-12 5.68 -12 4.36 -12 3 C-10.3789897 2.30314502 -8.75303934 1.61777139 -7.125 0.9375 C-6.22007812 0.55464844 -5.31515625 0.17179688 -4.3828125 -0.22265625 C-2 -1 -2 -1 0 0 Z " fill="#A7995D" transform="translate(474,223)"/>
<path d="M0 0 C0.33 0 0.66 0 1 0 C0.91308261 2.77236494 0.80622639 5.54147078 0.6875 8.3125 C0.66494141 9.09818359 0.64238281 9.88386719 0.61914062 10.69335938 C0.58369141 11.45068359 0.54824219 12.20800781 0.51171875 12.98828125 C0.48553467 13.68477783 0.45935059 14.38127441 0.43237305 15.09887695 C-0.11223768 17.49350359 -1.15829162 18.43272547 -3 20 C-2.22602467 13.29221378 -1.14231412 6.65425699 0 0 Z " fill="#AEA06C" transform="translate(971,728)"/>
<path d="M0 0 C0.33 0 0.66 0 1 0 C1.08069658 2.95887459 1.14034665 5.9155659 1.1875 8.875 C1.22520508 10.13763672 1.22520508 10.13763672 1.26367188 11.42578125 C1.27333984 12.23144531 1.28300781 13.03710938 1.29296875 13.8671875 C1.3086792 14.61081543 1.32438965 15.35444336 1.34057617 16.12060547 C1.17199097 17.05090576 1.17199097 17.05090576 1 18 C0.01 18.66 -0.98 19.32 -2 20 C-2.04241723 17.66705225 -2.04092937 15.33297433 -2 13 C-1.67 12.67 -1.34 12.34 -1 12 C-0.76572222 9.98405418 -0.58663876 7.961526 -0.4375 5.9375 C-0.35371094 4.83277344 -0.26992188 3.72804688 -0.18359375 2.58984375 C-0.12300781 1.73519531 -0.06242187 0.88054688 0 0 Z " fill="#B29E6C" transform="translate(300,644)"/>
<path d="M0 0 C0 0.66 0 1.32 0 2 C0.99 1.67 1.98 1.34 3 1 C3 2.32 3 3.64 3 5 C1.37276701 4.54965877 -0.25173664 4.08944646 -1.875 3.625 C-2.77992188 3.36976563 -3.68484375 3.11453125 -4.6171875 2.8515625 C-7 2 -7 2 -9 0 C-5.52176885 -1.15941038 -3.54104422 -0.70820884 0 0 Z " fill="#F8F2E4" transform="translate(821,220)"/>
<path d="M0 0 C3.39417765 3.12621626 5.6062718 5.56541027 7 10 C3.36905358 7.35039045 1.10148204 4.98175544 -1 1 C-0.67 0.67 -0.34 0.34 0 0 Z M5 1 C5.99 1.495 5.99 1.495 7 2 C7 2.99 7 3.98 7 5 C6.34 5 5.68 5 5 5 C5 3.68 5 2.36 5 1 Z " fill="#F7F4E5" transform="translate(745,1203)"/>
<path d="M0 0 C0.763125 0.20625 1.52625 0.4125 2.3125 0.625 C1.9825 1.615 1.6525 2.605 1.3125 3.625 C2.3025 3.955 3.2925 4.285 4.3125 4.625 C3.3225 5.12 3.3225 5.12 2.3125 5.625 C0.3671875 4.84765625 0.3671875 4.84765625 -1.8125 3.6875 C-2.53695313 3.30722656 -3.26140625 2.92695312 -4.0078125 2.53515625 C-4.56210937 2.23480469 -5.11640625 1.93445312 -5.6875 1.625 C-2.6875 -0.375 -2.6875 -0.375 0 0 Z " fill="#AD985E" transform="translate(445.6875,1043.375)"/>
<path d="M0 0 C0 0.99 0 1.98 0 3 C-1.65 3 -3.3 3 -5 3 C-5.33 3.66 -5.66 4.32 -6 5 C-6.99 5 -7.98 5 -9 5 C-9 4.34 -9 3.68 -9 3 C-9.66 2.67 -10.32 2.34 -11 2 C-9.54494642 1.47007308 -8.08581873 0.9513211 -6.625 0.4375 C-5.81289063 0.14746094 -5.00078125 -0.14257812 -4.1640625 -0.44140625 C-2 -1 -2 -1 0 0 Z " fill="#B29A60" transform="translate(774,1017)"/>
<path d="M0 0 C0.66 0.66 1.32 1.32 2 2 C0.68 3.65 -0.64 5.3 -2 7 C-3.65 6.67 -5.3 6.34 -7 6 C-2.25 1.125 -2.25 1.125 0 0 Z " fill="#F8F6E8" transform="translate(919,996)"/>
<path d="M0 0 C1.17219543 0.78345715 2.33763668 1.57702836 3.5 2.375 C4.47453125 3.03628906 4.47453125 3.03628906 5.46875 3.7109375 C5.9740625 4.13632812 6.479375 4.56171875 7 5 C7 5.66 7 6.32 7 7 C7.99 7.33 8.98 7.66 10 8 C9.01 8.495 9.01 8.495 8 9 C4.16917814 7.40382422 2.33343353 6.50015029 0 3 C0 2.01 0 1.02 0 0 Z " fill="#F8F1E5" transform="translate(312,959)"/>
<path d="M0 0 C0.99 0 1.98 0 3 0 C1.54955729 4.10958767 -0.51110752 7.43258745 -3 11 C-4.22376937 7.3286919 -3.61664584 6.40346492 -2 3 C-1.34 2.01 -0.68 1.02 0 0 Z " fill="#F8F4E6" transform="translate(901,907)"/>
<path d="M0 0 C2.475 0.99 2.475 0.99 5 2 C5 2.66 5 3.32 5 4 C6.32 4.33 7.64 4.66 9 5 C9 6.65 9 8.3 9 10 C5.01930733 7.12505529 2.56428003 4.17882671 0 0 Z " fill="#A9965A" transform="translate(262,906)"/>
<path d="M0 0 C1 2 1 2 0.22265625 4.3828125 C-0.16019531 5.28773438 -0.54304688 6.19265625 -0.9375 7.125 C-1.31777344 8.03507813 -1.69804688 8.94515625 -2.08984375 9.8828125 C-2.39019531 10.58148437 -2.69054688 11.28015625 -3 12 C-4.09658936 8.71023192 -3.79953138 7.28696233 -3 4 C-3.66 4 -4.32 4 -5 4 C-5 3.01 -5 2.02 -5 1 C-3.68 1 -2.36 1 -1 1 C-0.67 0.67 -0.34 0.34 0 0 Z " fill="#A79359" transform="translate(1073,799)"/>
<path d="M0 0 C3.34944548 5.02416822 3.09834146 9.09951257 3 15 C2.67 14.34 2.34 13.68 2 13 C1.34 12.67 0.68 12.34 0 12 C0 8.04 0 4.08 0 0 Z " fill="#AB9156" transform="translate(299,659)"/>
<path d="M0 0 C0.33 0.66 0.66 1.32 1 2 C0.67 2.66 0.34 3.32 0 4 C0.66 4 1.32 4 2 4 C0.73577236 6.52845528 -0.52845528 6.76422764 -3 8 C-3.33 8.66 -3.66 9.32 -4 10 C-4.99 10 -5.98 10 -7 10 C-5.33248852 6.05860922 -2.77289351 3.2107188 0 0 Z " fill="#AC9C62" transform="translate(276,357)"/>
<path d="M0 0 C0 4.10202215 -1.4911355 5.81306402 -4 9 C-6.75 10.375 -6.75 10.375 -9 11 C-6.36113346 6.7973607 -3.63559661 3.43361902 0 0 Z " fill="#AA9C67" transform="translate(294,338)"/>
<path d="M0 0 C2.64 0 5.28 0 8 0 C8.33 1.65 8.66 3.3 9 5 C4.68607774 4.5206753 2.83430453 3.2542015 0 0 Z " fill="#F2F1E5" transform="translate(952,302)"/>
<path d="M0 0 C0.99 0.66 1.98 1.32 3 2 C-1.95 4.97 -1.95 4.97 -7 8 C-7.66 7.01 -8.32 6.02 -9 5 C-8.01 4.67 -7.02 4.34 -6 4 C-5.34 4.33 -4.68 4.66 -4 5 C-3.67 4.01 -3.34 3.02 -3 2 C-2.01 1.34 -1.02 0.68 0 0 Z " fill="#F6F3E2" transform="translate(404,252)"/>
<path d="M0 0 C0.66 0.33 1.32 0.66 2 1 C-0.64 4.63 -3.28 8.26 -6 12 C-6.33 11.01 -6.66 10.02 -7 9 C-6.34 8.01 -5.68 7.02 -5 6 C-4.34 6 -3.68 6 -3 6 C-3.33 5.01 -3.66 4.02 -4 3 C-2.68 2.01 -1.36 1.02 0 0 Z " fill="#F7F3E0" transform="translate(543,1192)"/>
<path d="M0 0 C0.33 0 0.66 0 1 0 C1.1765235 5.11918146 1.2012966 9.24983365 -1 14 C-1.99 14.33 -2.98 14.66 -4 15 C-3.79503906 14.25234375 -3.59007812 13.5046875 -3.37890625 12.734375 C-3.10949219 11.74953125 -2.84007812 10.7646875 -2.5625 9.75 C-2.29566406 8.77546875 -2.02882813 7.8009375 -1.75390625 6.796875 C-1.14455416 4.53627347 -0.55761745 2.27377991 0 0 Z " fill="#B0A067" transform="translate(562,1157)"/>
<path d="M0 0 C0.66 0.33 1.32 0.66 2 1 C1.67 2.32 1.34 3.64 1 5 C1.66 5 2.32 5 3 5 C3 5.66 3 6.32 3 7 C1.02 7 -0.96 7 -3 7 C-2.38722388 4.03824877 -1.74627478 2.61941217 0 0 Z " fill="#FBFCF1" transform="translate(719,1024)"/>
<path d="M0 0 C3.16115776 1.36983503 3.9927092 1.9890638 6 5 C4.02 5.66 2.04 6.32 0 7 C0 4.69 0 2.38 0 0 Z " fill="#A89652" transform="translate(409,937)"/>
<path d="M0 0 C0.556875 0.70125 1.11375 1.4025 1.6875 2.125 C2.89812838 3.63010556 4.11795876 5.13034117 5.4140625 6.5625 C6.682356 7.97958771 7.84844043 9.4865217 9 11 C8.67 11.99 8.34 12.98 8 14 C4.32770991 10.62546316 1.91051157 7.62544907 0 3 C0 2.01 0 1.02 0 0 Z " fill="#A99A64" transform="translate(377,896)"/>
<path d="M0 0 C2.475 0.495 2.475 0.495 5 1 C5.99 4.3 6.98 7.6 8 11 C4.31993178 7.61831569 2.0214155 4.57478244 0 0 Z " fill="#F7F3E7" transform="translate(368,882)"/>
<path d="M0 0 C0.33 0.66 0.66 1.32 1 2 C0.34 2 -0.32 2 -1 2 C-1 2.66 -1 3.32 -1 4 C-0.34 4.33 0.32 4.66 1 5 C1.72693904 6.97888961 2.39816251 8.97954558 3 11 C2.01 11.495 2.01 11.495 1 12 C-0.65 8.7 -2.3 5.4 -4 2 C-2.68 1.34 -1.36 0.68 0 0 Z " fill="#A8975E" transform="translate(223,841)"/>
<path d="M0 0 C0.33 0.66 0.66 1.32 1 2 C0.34 1.67 -0.32 1.34 -1 1 C-0.67 0.67 -0.34 0.34 0 0 Z M-2 2 C-1.67 2 -1.34 2 -1 2 C1.28571429 10.42857143 1.28571429 10.42857143 1 15 C-1.02566659 12.97433341 -1.71585442 11.68201026 -2.75 9.0625 C-3.03359375 8.37285156 -3.3171875 7.68320312 -3.609375 6.97265625 C-4 5 -4 5 -2 2 Z " fill="#A79657" transform="translate(205,801)"/>
<path d="M0 0 C0.66 0.66 1.32 1.32 2 2 C-0.46153846 6.8 -0.46153846 6.8 -3.1875 7.8125 C-3.785625 7.874375 -4.38375 7.93625 -5 8 C-5 6.33333333 -5 4.66666667 -5 3 C-2.5 1.375 -2.5 1.375 0 0 Z " fill="#AA9257" transform="translate(402,256)"/>
<path d="M0 0 C2.31 0 4.62 0 7 0 C7.33 0.66 7.66 1.32 8 2 C8.66 2.144375 9.32 2.28875 10 2.4375 C10.66 2.623125 11.32 2.80875 12 3 C12.33 3.99 12.66 4.98 13 6 C3.40546697 3.10933941 3.40546697 3.10933941 0 0 Z " fill="#EEE8D7" transform="translate(843,233)"/>
<path d="M0 0 C5.445 1.485 5.445 1.485 11 3 C11 3.33 11 3.66 11 4 C8.03 4.66 5.06 5.32 2 6 C2.33 5.01 2.66 4.02 3 3 C1.68 2.67 0.36 2.34 -1 2 C-0.67 1.34 -0.34 0.68 0 0 Z " fill="#AA985C" transform="translate(801,217)"/>
<path d="M0 0 C2.6465335 2.6465335 3.59941997 5.56221264 5 9 C3.68 9.33 2.36 9.66 1 10 C-0.60725635 6.78548731 -0.05748185 3.56387464 0 0 Z " fill="#AB975A" transform="translate(721,1170)"/>
<path d="M0 0 C-0.7109375 1.921875 -0.7109375 1.921875 -2 4 C-4.1640625 4.828125 -4.1640625 4.828125 -6.625 5.25 C-7.85089844 5.47429688 -7.85089844 5.47429688 -9.1015625 5.703125 C-9.72804688 5.80109375 -10.35453125 5.8990625 -11 6 C-11 5.34 -11 4.68 -11 4 C-9.5437455 3.32880451 -8.08492133 2.66318193 -6.625 2 C-5.81289063 1.62875 -5.00078125 1.2575 -4.1640625 0.875 C-2 0 -2 0 0 0 Z " fill="#A89760" transform="translate(796,1007)"/>
<path d="M0 0 C1.24546405 2.49092811 0.7767578 3.41080733 0 6 C-1.75 6.625 -1.75 6.625 -4 7 C-5.32 6.34 -6.64 5.68 -8 5 C-4.04 2.525 -4.04 2.525 0 0 Z " fill="#AB9559" transform="translate(820,993)"/>
<path d="M0 0 C1.65 0 3.3 0 5 0 C5 0.66 5 1.32 5 2 C5.99 2.33 6.98 2.66 8 3 C8 4.66666667 8 6.33333333 8 8 C6.66372225 6.85760183 5.33104612 5.71098945 4 4.5625 C3.2575 3.92441406 2.515 3.28632812 1.75 2.62890625 C1.1725 2.09136719 0.595 1.55382812 0 1 C0 0.67 0 0.34 0 0 Z " fill="#AC9956" transform="translate(323,968)"/>
<path d="M0 0 C0.33 0.66 0.66 1.32 1 2 C0.01 3.485 0.01 3.485 -1 5 C-1.66 5 -2.32 5 -3 5 C-3 5.66 -3 6.32 -3 7 C-4.65 7.33 -6.3 7.66 -8 8 C-7.04578192 6.85073734 -6.08647955 5.70569459 -5.125 4.5625 C-4.59132813 3.92441406 -4.05765625 3.28632812 -3.5078125 2.62890625 C-2 1 -2 1 0 0 Z " fill="#F6F1DD" transform="translate(967,957)"/>
<path d="M0 0 C0.33 0 0.66 0 1 0 C1.49230769 6.4 1.49230769 6.4 -1 9.4375 C-1.99 10.2109375 -1.99 10.2109375 -3 11 C-3.66 10.67 -4.32 10.34 -5 10 C-3.35 6.7 -1.7 3.4 0 0 Z " fill="#F5EFDC" transform="translate(1059,832)"/>
<path d="M0 0 C1.12758089 3.38274266 0.81750262 4.76778223 0.0625 8.1875 C-0.13214844 9.08855469 -0.32679688 9.98960937 -0.52734375 10.91796875 C-0.68332031 11.60503906 -0.83929688 12.29210937 -1 13 C-1.33 13 -1.66 13 -2 13 C-2.33 9.7 -2.66 6.4 -3 3 C-2.01 2.67 -1.02 2.34 0 2 C0 1.34 0 0.68 0 0 Z " fill="#AA985E" transform="translate(309,520)"/>
<path d="M0 0 C2.12508244 3.18762365 2.5020163 5.26512223 3 9 C2.01 9 1.02 9 0 9 C-0.99 9.495 -0.99 9.495 -2 10 C-1.125 2.25 -1.125 2.25 0 0 Z " fill="#AE9A60" transform="translate(1090,505)"/>
<path d="M0 0 C0.66 0.33 1.32 0.66 2 1 C0.68 3.64 -0.64 6.28 -2 9 C-2.99 7.68 -3.98 6.36 -5 5 C-4.1875 3.0625 -4.1875 3.0625 -3 1 C-2.01 0.67 -1.02 0.34 0 0 Z " fill="#A9935A" transform="translate(353,401)"/>
<path d="M0 0 C0.33 0.66 0.66 1.32 1 2 C-5.25 8.25 -5.25 8.25 -11 9 C-7.56638098 5.36440339 -4.2026393 2.63886654 0 0 Z " fill="#F8F1E3" transform="translate(451,294)"/>
<path d="M0 0 C0.66 0 1.32 0 2 0 C2.226875 0.598125 2.45375 1.19625 2.6875 1.8125 C4.33307014 4.5551169 6.27035797 5.41968093 9 7 C9 7.66 9 8.32 9 9 C4.95579349 7.22054913 1.53921513 4.60470327 -2 2 C-1.34 1.34 -0.68 0.68 0 0 Z " fill="#F7F3E2" transform="translate(924,277)"/>
<path d="M0 0 C1.32 0.66 2.64 1.32 4 2 C1.03 3.65 -1.94 5.3 -5 7 C-5 6.01 -5 5.02 -5 4 C-2.5 1.8125 -2.5 1.8125 0 0 Z " fill="#F8F2E8" transform="translate(365,276)"/>
<path d="M0 0 C1.125 3.75 1.125 3.75 0 6 C-1.32 5.67 -2.64 5.34 -4 5 C-4 5.66 -4 6.32 -4 7 C-4.99 7 -5.98 7 -7 7 C-5.66667905 3.00003714 -3.5042173 2.16217663 0 0 Z " fill="#A99856" transform="translate(376,272)"/>
<path d="M0 0 C-5.94 3.465 -5.94 3.465 -12 7 C-9.3220339 1.6440678 -9.3220339 1.6440678 -5.5625 -0.1875 C-3 -1 -3 -1 0 0 Z " fill="#F8F5E2" transform="translate(387,266)"/>
<path d="M0 0 C4.96916636 0.51405169 9.29026351 1.23384882 14 3 C14 3.66 14 4.32 14 5 C8.94744036 4.36843005 4.70406799 2.86540627 0 1 C0 0.67 0 0.34 0 0 Z " fill="#AB9E65" transform="translate(744,260)"/>
<path d="M0 0 C0.33 0 0.66 0 1 0 C2.59162079 5.57067277 3.20674944 10.21101581 3 16 C2.67 16 2.34 16 2 16 C2 14.02 2 12.04 2 10 C1.01 9.67 0.02 9.34 -1 9 C-0.67 6.03 -0.34 3.06 0 0 Z " fill="#F0EBD9" transform="translate(561,118)"/>
<path d="M0 0 C0.33 0.99 0.66 1.98 1 3 C-5.28571429 5.42857143 -5.28571429 5.42857143 -9 4 C-2.25 0 -2.25 0 0 0 Z " fill="#F7F5E4" transform="translate(882,1021)"/>
<path d="M0 0 C0.66 0.33 1.32 0.66 2 1 C-1.3 3.64 -4.6 6.28 -8 9 C-8.33 8.01 -8.66 7.02 -9 6 C-6.03 4.02 -3.06 2.04 0 0 Z " fill="#F6F0E1" transform="translate(841,977)"/>
<path d="M0 0 C0 3 0 3 -2.125 5.5625 C-5.07929244 8.0672262 -7.28350424 9.04926853 -11 10 C-7.50640535 6.40365256 -3.88901869 3.16548033 0 0 Z " fill="#F6F0E2" transform="translate(947,974)"/>
<path d="M0 0 C2.97 1.98 2.97 1.98 6 4 C5.360625 4.28875 4.72125 4.5775 4.0625 4.875 C1.84793921 5.82823451 1.84793921 5.82823451 1 8 C0.17361624 5.10765685 0 3.11257569 0 0 Z " fill="#A69555" transform="translate(448,973)"/>
<path d="M0 0 C2.31 1.98 4.62 3.96 7 6 C5.02 6.99 5.02 6.99 3 8 C2.34 7.67 1.68 7.34 1 7 C0.59270772 4.67843403 0.25561323 2.3431213 0 0 Z " fill="#F8F2EA" transform="translate(273,920)"/>
<path d="M0 0 C0.33 0 0.66 0 1 0 C1.33 2.64 1.66 5.28 2 8 C-0.31 8.33 -2.62 8.66 -5 9 C-3.35 6.03 -1.7 3.06 0 0 Z " fill="#AE9A5C" transform="translate(907,902)"/>
<path d="M0 0 C0.66 0.66 1.32 1.32 2 2 C0.02 4.64 -1.96 7.28 -4 10 C-4.99 9.01 -5.98 8.02 -7 7 C-5.68 6.34 -4.36 5.68 -3 5 C-3 4.34 -3 3.68 -3 3 C-1.5 1.375 -1.5 1.375 0 0 Z " fill="#A89558" transform="translate(1022,890)"/>
<path d="M0 0 C2.6348519 2.45919511 4.74516551 4.57772411 6 8 C5.67 8.66 5.34 9.32 5 10 C4.34 10 3.68 10 3 10 C0.43918091 6.25726441 0 4.43925546 0 0 Z " fill="#AA995C" transform="translate(1033,390)"/>
<path d="M0 0 C0.99 0.33 1.98 0.66 3 1 C-0.3 3.97 -3.6 6.94 -7 10 C-7 6.04435836 -5.59478606 4.89133304 -3 2 C-2.01 1.34 -1.02 0.68 0 0 Z " fill="#FBF6E7" transform="translate(302,328)"/>
<path d="M0 0 C3.96 1.98 7.92 3.96 12 6 C11.34 6.66 10.68 7.32 10 8 C8.51478323 7.24088921 7.03696575 6.46728766 5.5625 5.6875 C4.73878906 5.25824219 3.91507813 4.82898438 3.06640625 4.38671875 C1 3 1 3 0 0 Z " fill="#AB9A62" transform="translate(871,247)"/>
<path d="M0 0 C3.465 1.98 3.465 1.98 7 4 C6.01 4.33 5.02 4.66 4 5 C3.34 4.67 2.68 4.34 2 4 C2 4.66 2 5.32 2 6 C0.68 6 -0.64 6 -2 6 C-2 4 -2 4 0 2 C0 1.34 0 0.68 0 0 Z " fill="#AA965B" transform="translate(465,986)"/>
<path d="M0 0 C-4.455 3.465 -4.455 3.465 -9 7 C-9.33 6.34 -9.66 5.68 -10 5 C-7.22392109 0.83588163 -5.08838935 -1.69612978 0 0 Z " fill="#AC9660" transform="translate(944,978)"/>
<path d="M0 0 C0.66 0.33 1.32 0.66 2 1 C1.8125 2.875 1.8125 2.875 1 5 C-1.88719595 6.48261414 -4.83976631 7.29772585 -8 8 C-5.33333333 5.33333333 -2.66666667 2.66666667 0 0 Z " fill="#F2EEDD" transform="translate(956,966)"/>
<path d="M0 0 C2.93200474 2.85276137 5.64315404 5.65079784 8 9 C5.69 8.34 3.38 7.68 1 7 C0.67 4.69 0.34 2.38 0 0 Z " fill="#A7985E" transform="translate(394,919)"/>
<path d="M0 0 C1.32 0.66 2.64 1.32 4 2 C4 2.99 4 3.98 4 5 C3.01 4.67 2.02 4.34 1 4 C0.34 4.66 -0.32 5.32 -1 6 C-1.66 5.67 -2.32 5.34 -3 5 C-2 2 -2 2 0 0 Z " fill="#AC975C" transform="translate(389,914)"/>
<path d="M0 0 C0.33 1.32 0.66 2.64 1 4 C-0.9375 6.75 -0.9375 6.75 -3 9 C-3.99 8.67 -4.98 8.34 -6 8 C-4.02 5.36 -2.04 2.72 0 0 Z " fill="#F0E8DD" transform="translate(1017,900)"/>
<path d="M0 0 C2.00047023 2.54605302 3.82572785 4.9664636 5 8 C4.67 8.99 4.34 9.98 4 11 C3.34 9.35 2.68 7.7 2 6 C1.01 6.33 0.02 6.66 -1 7 C-0.67 4.69 -0.34 2.38 0 0 Z " fill="#AE9B61" transform="translate(355,860)"/>
<path d="M0 0 C0.33 1.32 0.66 2.64 1 4 C1.66 4 2.32 4 3 4 C3 7.63 3 11.26 3 15 C2.67 15 2.34 15 2 15 C0.73694665 9.92523206 -0.27036084 5.27203646 0 0 Z " fill="#F3EDD7" transform="translate(312,736)"/>
<path d="M0 0 C3.08089673 2.77280706 4.68775452 5.06326356 6 9 C4.02 8.34 2.04 7.68 0 7 C0 4.69 0 2.38 0 0 Z " fill="#F9F6E3" transform="translate(906,384)"/>
<path d="M0 0 C2.125 0.375 2.125 0.375 4 1 C2.70700306 3.88437779 1.34058637 5.87219421 -1 8 C-1.625 5.125 -1.625 5.125 -2 2 C-1.34 1.34 -0.68 0.68 0 0 Z " fill="#F9F7ED" transform="translate(257,374)"/>
<path d="M0 0 C0.33 0.66 0.66 1.32 1 2 C1.99 1.67 2.98 1.34 4 1 C5.0625 2.8125 5.0625 2.8125 6 5 C5.67 5.99 5.34 6.98 5 8 C0.125 4.375 0.125 4.375 -1 1 C-0.67 0.67 -0.34 0.34 0 0 Z " fill="#A6955C" transform="translate(864,330)"/>
<path d="M0 0 C0 3.62875867 -1.22793994 5.01739353 -3.5546875 7.703125 C-5.55721506 9.49998757 -7.35337395 9.84876423 -10 10 C-6.66666667 6.66666667 -3.33333333 3.33333333 0 0 Z " fill="#A79565" transform="translate(309,324)"/>
<path d="M0 0 C0 0.99 0 1.98 0 3 C-3.47325181 4.1577506 -6.36067448 4.06866652 -10 4 C-9 2 -9 2 -6.125 0.875 C-3 0 -3 0 0 0 Z " fill="#AB8B51" transform="translate(544,246)"/>
<path d="M0 0 C0 0.66 0 1.32 0 2 C-5.94 2.495 -5.94 2.495 -12 3 C-8.22452468 0.16839351 -4.62747784 -2.31373892 0 0 Z " fill="#AF995B" transform="translate(449,235)"/>
<path d="M0 0 C2.97 0.495 2.97 0.495 6 1 C6 1.66 6 2.32 6 3 C4.576875 3.12375 4.576875 3.12375 3.125 3.25 C-0.10461791 3.65074923 -0.10461791 3.65074923 -1.375 6.0625 C-1.58125 6.701875 -1.7875 7.34125 -2 8 C-2.33 7.01 -2.66 6.02 -3 5 C-1.5625 2.3125 -1.5625 2.3125 0 0 Z " fill="#A8945F" transform="translate(715,1080)"/>
<path d="M0 0 C0.66 0 1.32 0 2 0 C2 0.99 2 1.98 2 3 C0.73160474 3.50615298 -0.53983102 4.00469099 -1.8125 4.5 C-2.87404297 4.91765625 -2.87404297 4.91765625 -3.95703125 5.34375 C-6 6 -6 6 -9 6 C-9 5.34 -9 4.68 -9 4 C-8.43410156 3.79503906 -7.86820313 3.59007812 -7.28515625 3.37890625 C-6.55167969 3.10949219 -5.81820312 2.84007812 -5.0625 2.5625 C-4.33160156 2.29566406 -3.60070312 2.02882813 -2.84765625 1.75390625 C-1.01694322 1.14613052 -1.01694322 1.14613052 0 0 Z " fill="#AA9B67" transform="translate(765,1068)"/>
<path d="M0 0 C0.66 0.33 1.32 0.66 2 1 C0.93106782 2.03590338 -0.15578488 3.05333942 -1.25 4.0625 C-2.15492188 4.91521484 -2.15492188 4.91521484 -3.078125 5.78515625 C-4.02945313 6.38650391 -4.02945313 6.38650391 -5 7 C-6.32 6.67 -7.64 6.34 -9 6 C-6.03 4.02 -3.06 2.04 0 0 Z " fill="#F5EFDA" transform="translate(904,1006)"/>
<path d="M0 0 C-0.33 1.65 -0.66 3.3 -1 5 C-3.31 4.67 -5.62 4.34 -8 4 C-2.7826087 0 -2.7826087 0 0 0 Z " fill="#AB9759" transform="translate(812,999)"/>
<path d="M0 0 C0.8125 1.6875 0.8125 1.6875 1 4 C-1.4375 6.75 -1.4375 6.75 -4 9 C-4.99 8.34 -5.98 7.68 -7 7 C-6.38125 6.7525 -5.7625 6.505 -5.125 6.25 C-2.62985717 4.78226892 -2.09872287 3.62003145 -1 1 C-0.67 0.67 -0.34 0.34 0 0 Z " fill="#B2A06A" transform="translate(867,955)"/>
<path d="M0 0 C1.125 1.625 1.125 1.625 2 4 C1.125 7.25 1.125 7.25 0 10 C-0.66 10 -1.32 10 -2 10 C-1.85950482 8.52031676 -1.71245174 7.04125484 -1.5625 5.5625 C-1.48128906 4.73878906 -1.40007812 3.91507813 -1.31640625 3.06640625 C-1 1 -1 1 0 0 Z " fill="#AB9255" transform="translate(1083,768)"/>
<path d="M0 0 C4.64322514 4.49344368 4.76182476 8.86698764 5 15 C3.25050228 12.37575342 2.34610019 10.44272784 1.375 7.5 C0.98441406 6.33984375 0.98441406 6.33984375 0.5859375 5.15625 C0 3 0 3 0 0 Z " fill="#AA985D" transform="translate(951,470)"/>
<path d="M0 0 C0.99 0.495 0.99 0.495 2 1 C2 1.66 2 2.32 2 3 C2.99 3.33 3.98 3.66 5 4 C4.34 5.65 3.68 7.3 3 9 C2.67 8.01 2.34 7.02 2 6 C1.34 6 0.68 6 0 6 C0 4.02 0 2.04 0 0 Z " fill="#AB9458" transform="translate(340,417)"/>
<path d="M0 0 C0.66 0 1.32 0 2 0 C2 1.65 2 3.3 2 5 C2.66 5 3.32 5 4 5 C4 4.34 4 3.68 4 3 C4.66 3 5.32 3 6 3 C5.34 4.65 4.68 6.3 4 8 C2 6.8125 2 6.8125 0 5 C-0.25 2.3125 -0.25 2.3125 0 0 Z " fill="#AC9558" transform="translate(344,407)"/>
<path d="M0 0 C1.98 0 3.96 0 6 0 C6 0.99 6 1.98 6 3 C6.99 4.485 6.99 4.485 8 6 C5 6 5 6 3.61328125 4.6875 C2.40885417 3.125 1.20442708 1.5625 0 0 Z " fill="#A8945E" transform="translate(877,346)"/>
<path d="M0 0 C1.32 0 2.64 0 4 0 C4.33 0.99 4.66 1.98 5 3 C3.68 3.99 2.36 4.98 1 6 C1 5.34 1 4.68 1 4 C0.01 3.67 -0.98 3.34 -2 3 C-1.34 2.01 -0.68 1.02 0 0 Z " fill="#AC9458" transform="translate(387,346)"/>
<path d="M0 0 C0.33 1.32 0.66 2.64 1 4 C-1.31 4 -3.62 4 -6 4 C-6.33 3.34 -6.66 2.68 -7 2 C-4 0 -4 0 0 0 Z " fill="#F5FAF2" transform="translate(955,296)"/>
<path d="M0 0 C0.99 0.33 1.98 0.66 3 1 C-0.63 2.98 -4.26 4.96 -8 7 C-8 6.01 -8 5.02 -8 4 C-7.34 4 -6.68 4 -6 4 C-6 3.34 -6 2.68 -6 2 C-5.38125 1.855625 -4.7625 1.71125 -4.125 1.5625 C-1.96741678 1.06847775 -1.96741678 1.06847775 0 0 Z " fill="#A79661" transform="translate(467,282)"/>
<path d="M0 0 C0 0.99 0 1.98 0 3 C1.98 3 3.96 3 6 3 C5.67 3.99 5.34 4.98 5 6 C1.22454612 4.90931332 -1.47043472 4.0916909 -4 1 C-2 0 -2 0 0 0 Z " fill="#AB9863" transform="translate(799,281)"/>
<path d="M0 0 C2.97 0.99 5.94 1.98 9 3 C9 3.33 9 3.66 9 4 C6.03 4.66 3.06 5.32 0 6 C0 5.34 0 4.68 0 4 C0.66 3.67 1.32 3.34 2 3 C1.34 2.67 0.68 2.34 0 2 C0 1.34 0 0.68 0 0 Z " fill="#AA9865" transform="translate(816,222)"/>
<path d="M0 0 C3.45281166 1.15093722 4.38082163 2.3205993 6.6875 5.0625 C7.31011719 5.79597656 7.93273437 6.52945313 8.57421875 7.28515625 C9.04472656 7.85105469 9.51523437 8.41695312 10 9 C9.34 9.66 8.68 10.32 8 11 C6.66375099 9.35653302 5.33107149 7.71016314 4 6.0625 C3.2575 5.14597656 2.515 4.22945313 1.75 3.28515625 C0 1 0 1 0 0 Z " fill="#AA9966" transform="translate(526,63)"/>
<path d="M0 0 C-0.66 1.32 -1.32 2.64 -2 4 C-5.3 4 -8.6 4 -12 4 C-8.36043372 1.57362248 -4.44144233 0 0 0 Z " fill="#F3F0DC" transform="translate(776,1068)"/>
<path d="M0 0 C1.65 0 3.3 0 5 0 C4 3 4 3 2.15234375 3.94921875 C1.42144531 4.19285156 0.69054687 4.43648437 -0.0625 4.6875 C-1.16271484 5.06455078 -1.16271484 5.06455078 -2.28515625 5.44921875 C-2.85105469 5.63097656 -3.41695312 5.81273437 -4 6 C-4 5.34 -4 4.68 -4 4 C-2.68662604 2.9739266 -1.35335895 1.97272675 0 1 C0 0.67 0 0.34 0 0 Z " fill="#AB9957" transform="translate(813,1050)"/>
<path d="M0 0 C3.465 1.485 3.465 1.485 7 3 C6.67 3.66 6.34 4.32 6 5 C4.02 5 2.04 5 0 5 C0 3.35 0 1.7 0 0 Z " fill="#FAF4F0" transform="translate(416,1033)"/>
<path d="M0 0 C2.00720923 0.28674418 4.0085944 0.61866701 6 1 C4.625 3 4.625 3 3 5 C2.34 5 1.68 5 1 5 C0.34 3.68 -0.32 2.36 -1 1 C-0.67 0.67 -0.34 0.34 0 0 Z " fill="#AC9256" transform="translate(947,968)"/>
<path d="M0 0 C1.65 0 3.3 0 5 0 C4.40072174 3.35595828 3.15377564 5.37801226 1 8 C0.67 5.36 0.34 2.72 0 0 Z " fill="#A99259" transform="translate(1054,832)"/>
<path d="M0 0 C1.9451 2.91765 2.45276317 4.62537285 3 8 C2.34 8 1.68 8 1 8 C1 8.66 1 9.32 1 10 C0.34 10 -0.32 10 -1 10 C-0.67 6.7 -0.34 3.4 0 0 Z " fill="#F7F3E2" transform="translate(189,774)"/>
<path d="M0 0 C3.81300782 3.2870757 5.22972246 6.39727838 7 11 C3.66428571 9.88809524 3.41582921 9.53679327 1.8125 6.625 C1.46832031 6.01914062 1.12414062 5.41328125 0.76953125 4.7890625 C0 3 0 3 0 0 Z " fill="#F6F0DA" transform="translate(912,393)"/>
<path d="M0 0 C-0.33 0.99 -0.66 1.98 -1 3 C-4.63 3.33 -8.26 3.66 -12 4 C-8.14070855 1.42713903 -4.66785662 0 0 0 Z " fill="#B5A56F" transform="translate(502,212)"/>
<path d="M0 0 C0.66 0.33 1.32 0.66 2 1 C0.35 3.64 -1.3 6.28 -3 9 C-4.09658936 5.71023192 -3.79953138 4.28696233 -3 1 C-2.01 0.67 -1.02 0.34 0 0 Z " fill="#A99765" transform="translate(1040,864)"/>
<path d="M0 0 C1.89213369 2.38573379 3.02391783 4.07175348 4 7 C3.01 7.495 3.01 7.495 2 8 C1.34 7.34 0.68 6.68 0 6 C-0.99 6.66 -1.98 7.32 -3 8 C-2.5359375 7.13375 -2.5359375 7.13375 -2.0625 6.25 C-1.07416636 4.15705816 -0.4831387 2.25464725 0 0 Z " fill="#AB9859" transform="translate(348,847)"/>
<path d="M0 0 C0.33 0 0.66 0 1 0 C1.33 2.31 1.66 4.62 2 7 C0.68 7.33 -0.64 7.66 -2 8 C-2.6875 6.25 -2.6875 6.25 -3 4 C-1.625 1.75 -1.625 1.75 0 0 Z " fill="#AB9456" transform="translate(262,374)"/>
<path d="M0 0 C0 3.57575896 -1.08840607 5.05295935 -3 8 C-4.32 7.67 -5.64 7.34 -7 7 C-4.69 4.69 -2.38 2.38 0 0 Z " fill="#A79860" transform="translate(284,349)"/>
<path d="M0 0 C0.66 0.99 1.32 1.98 2 3 C1.34 4.32 0.68 5.64 0 7 C-1.32 6.34 -2.64 5.68 -4 5 C-2.68 3.35 -1.36 1.7 0 0 Z " fill="#F6F6EA" transform="translate(395,344)"/>
<path d="M0 0 C0.33 0.66 0.66 1.32 1 2 C0.0022242 4.99332739 -0.7522025 5.94766315 -3 8 C-3.66 7.67 -4.32 7.34 -5 7 C-5 6.01 -5 5.02 -5 4 C-2.5 1.8125 -2.5 1.8125 0 0 Z " fill="#AA9860" transform="translate(338,299)"/>
<path d="M0 0 C3.465 1.485 3.465 1.485 7 3 C6.01 3.495 6.01 3.495 5 4 C5 4.66 5 5.32 5 6 C3.68 5.67 2.36 5.34 1 5 C0.67 3.35 0.34 1.7 0 0 Z " fill="#F1F5EB" transform="translate(788,279)"/>
<path d="M0 0 C4.95 0.99 4.95 0.99 10 2 C9.01 2.495 9.01 2.495 8 3 C7.67 3.66 7.34 4.32 7 5 C5.1875 4.75 5.1875 4.75 3 4 C2.01 2.68 1.02 1.36 0 0 Z " fill="#FCF9E9" transform="translate(728,256)"/>
<path d="M0 0 C0 0.33 0 0.66 0 1 C-3.3 1.33 -6.6 1.66 -10 2 C-10 1.34 -10 0.68 -10 0 C-6.7169902 -1.6415049 -3.57454967 -0.51888624 0 0 Z " fill="#FBF8EC" transform="translate(522,1074)"/>
<path d="M0 0 C-1.28913487 0.67154933 -2.58140204 1.33708859 -3.875 2 C-4.59429688 2.37125 -5.31359375 2.7425 -6.0546875 3.125 C-8 4 -8 4 -10 4 C-9.67 3.01 -9.34 2.02 -9 1 C-3.79245283 -1.26415094 -3.79245283 -1.26415094 0 0 Z " fill="#FAF5E3" transform="translate(802,1004)"/>
<path d="M0 0 C0.99 0.33 1.98 0.66 3 1 C0.69 2.65 -1.62 4.3 -4 6 C-4.66 5.34 -5.32 4.68 -6 4 C-3.1875 1.9375 -3.1875 1.9375 0 0 Z " fill="#F7F7E8" transform="translate(849,970)"/>
<path d="M0 0 C1.32 1.32 2.64 2.64 4 4 C3.01 4.33 2.02 4.66 1 5 C0.34 5.66 -0.32 6.32 -1 7 C-1.625 5.1875 -1.625 5.1875 -2 3 C-1.34 2.01 -0.68 1.02 0 0 Z " fill="#F7F9F0" transform="translate(322,968)"/>
<path d="M0 0 C0.99 0.33 1.98 0.66 3 1 C2.60196439 3.88575819 2.20990931 4.82189513 -0.0625 6.75 C-0.701875 7.1625 -1.34125 7.575 -2 8 C-1.33333333 5.33333333 -0.66666667 2.66666667 0 0 Z " fill="#F7F3EF" transform="translate(873,943)"/>
<path d="M0 0 C0.33 0.99 0.66 1.98 1 3 C-0.65 4.65 -2.3 6.3 -4 8 C-4.33 6.35 -4.66 4.7 -5 3 C-3.35 2.01 -1.7 1.02 0 0 Z " fill="#F5F3E8" transform="translate(888,928)"/>
<path d="M0 0 C0.33 0.99 0.66 1.98 1 3 C-3.75 7.875 -3.75 7.875 -6 9 C-4.68775452 5.06326356 -3.08089673 2.77280706 0 0 Z " fill="#F9F5E4" transform="translate(1042,866)"/>
<path d="M0 0 C3.34905453 3.34905453 3.89470285 5.49378854 5 10 C4.34 10.66 3.68 11.32 3 12 C2.01 8.04 1.02 4.08 0 0 Z " fill="#A99B5F" transform="translate(184,755)"/>
<path d="M0 0 C0.33 0 0.66 0 1 0 C1.37211538 7.56634615 1.37211538 7.56634615 -0.51171875 9.76171875 C-1.00285156 10.17035156 -1.49398438 10.57898438 -2 11 C-1.85892253 9.54119891 -1.71197585 8.08296449 -1.5625 6.625 C-1.48128906 5.81289063 -1.40007812 5.00078125 -1.31640625 4.1640625 C-1 2 -1 2 0 0 Z " fill="#F5EED7" transform="translate(1098,723)"/>
<path d="M0 0 C3.36720387 1.39332574 4.9859524 2.9789286 7 6 C6.01 6.33 5.02 6.66 4 7 C4 6.01 4 5.02 4 4 C2.35 4 0.7 4 -1 4 C-0.67 2.68 -0.34 1.36 0 0 Z " fill="#F7F2E1" transform="translate(877,348)"/>
<path d="M0 0 C1.65 0.33 3.3 0.66 5 1 C4.67 2.32 4.34 3.64 4 5 C2.02 4.34 0.04 3.68 -2 3 C-1.34 2.67 -0.68 2.34 0 2 C0 1.34 0 0.68 0 0 Z " fill="#AA9356" transform="translate(787,275)"/>
<path d="M0 0 C0.66 0.33 1.32 0.66 2 1 C0.25 3.9375 0.25 3.9375 -2 7 C-3.32 7.33 -4.64 7.66 -6 8 C-4.02 5.36 -2.04 2.72 0 0 Z " fill="#F5F2DE" transform="translate(740,81)"/>
<path d="M0 0 C2.125 0.9375 2.125 0.9375 4 2 C-1.75 5 -1.75 5 -4 5 C-4 4.34 -4 3.68 -4 3 C-3.34 3 -2.68 3 -2 3 C-2 2.34 -2 1.68 -2 1 C-1.34 0.67 -0.68 0.34 0 0 Z " fill="#A99457" transform="translate(846,1036)"/>
<path d="M0 0 C-2.97 1.65 -5.94 3.3 -9 5 C-9 4.01 -9 3.02 -9 2 C-5.3823098 -0.81375904 -4.61553765 -1.15388441 0 0 Z " fill="#F5EFDD" transform="translate(822,993)"/>
<path d="M0 0 C1.32 0 2.64 0 4 0 C2.25 4.875 2.25 4.875 0 6 C-0.38218767 4.34385343 -0.71395102 2.67542976 -1 1 C-0.67 0.67 -0.34 0.34 0 0 Z " fill="#FBF8ED" transform="translate(1089,496)"/>
<path d="M0 0 C0.66 0.33 1.32 0.66 2 1 C0.84414715 4.91211733 -0.35534962 7.8745041 -3 11 C-2.69078116 9.54096742 -2.37751201 8.08279278 -2.0625 6.625 C-1.88847656 5.81289063 -1.71445313 5.00078125 -1.53515625 4.1640625 C-1 2 -1 2 0 0 Z " fill="#F8F3E6" transform="translate(210,454)"/>
<path d="M0 0 C1.99097846 2.98646769 2.94124926 5.59687262 4 9 C3.01 9 2.02 9 1 9 C0.67 6.03 0.34 3.06 0 0 Z " fill="#F9F5DE" transform="translate(939,443)"/>
<path d="M0 0 C2.64 1.98 5.28 3.96 8 6 C5 7 5 7 3 7 C0 2.61538462 0 2.61538462 0 0 Z " fill="#F6F3E2" transform="translate(841,313)"/>
<path d="M0 0 C0.66 0 1.32 0 2 0 C2 0.66 2 1.32 2 2 C2.99 2.33 3.98 2.66 5 3 C4.67 3.99 4.34 4.98 4 6 C3.34 6 2.68 6 2 6 C2 5.01 2 4.02 2 3 C1.01 3 0.02 3 -1 3 C-0.67 2.01 -0.34 1.02 0 0 Z " fill="#A99356" transform="translate(435,298)"/>
<path d="M0 0 C3.3 0 6.6 0 10 0 C9.01 0.33 8.02 0.66 7 1 C7 1.99 7 2.98 7 4 C4.08482708 2.92598892 2.22189824 2.22189824 0 0 Z " fill="#AE9D63" transform="translate(808,290)"/>
<path d="M0 0 C0.66 0.33 1.32 0.66 2 1 C1.67 1.99 1.34 2.98 1 4 C-1.64 4.33 -4.28 4.66 -7 5 C-2.25 1.125 -2.25 1.125 0 0 Z " fill="#AD9A69" transform="translate(384,267)"/>
<path d="M0 0 C1.32 1.32 2.64 2.64 4 4 C3.01 4.33 2.02 4.66 1 5 C0.67 5.66 0.34 6.32 0 7 C-1.04449911 3.86650268 -0.93423645 3.01031744 0 0 Z " fill="#F5F5E3" transform="translate(539,80)"/>
<path d="M0 0 C0 2.31 0 4.62 0 7 C-1.65 5.35 -3.3 3.7 -5 2 C-1.125 0 -1.125 0 0 0 Z " fill="#F6F8E6" transform="translate(743,1195)"/>
<path d="M0 0 C-0.66 1.65 -1.32 3.3 -2 5 C-4.97 4.505 -4.97 4.505 -8 4 C-2.7826087 0 -2.7826087 0 0 0 Z " fill="#F5F1DD" transform="translate(850,1038)"/>
<path d="M0 0 C-1 3 -1 3 -3.0625 4.1875 C-3.701875 4.455625 -4.34125 4.72375 -5 5 C-5.99 4.34 -6.98 3.68 -8 3 C-2.25 0 -2.25 0 0 0 Z " fill="#F4F1DB" transform="translate(864,1031)"/>
<path d="M0 0 C2.97 0.495 2.97 0.495 6 1 C3.01353231 2.99097846 0.40312738 3.94124926 -3 5 C-2.01 3.35 -1.02 1.7 0 0 Z " fill="#F3EDD8" transform="translate(760,1017)"/>
<path d="M0 0 C1.98 0 3.96 0 6 0 C6.33 1.65 6.66 3.3 7 5 C3.535 3.02 3.535 3.02 0 1 C0 0.67 0 0.34 0 0 Z " fill="#AA9C5D" transform="translate(378,1010)"/>
<path d="M0 0 C0.763125 0.556875 1.52625 1.11375 2.3125 1.6875 C2.3125 2.3475 2.3125 3.0075 2.3125 3.6875 C-3.4375 1.9375 -3.4375 1.9375 -5.6875 -0.3125 C-2.6875 -1.3125 -2.6875 -1.3125 0 0 Z " fill="#F4EEDD" transform="translate(501.6875,1005.3125)"/>
<path d="M0 0 C1.32 0.66 2.64 1.32 4 2 C1.69 3.32 -0.62 4.64 -3 6 C-3.66 5.34 -4.32 4.68 -5 4 C-3.35 3.67 -1.7 3.34 0 3 C0 2.01 0 1.02 0 0 Z " fill="#A9995B" transform="translate(902,1004)"/>
<path d="M0 0 C0 0.99 0 1.98 0 3 C-2.64 3.33 -5.28 3.66 -8 4 C-2.7826087 0 -2.7826087 0 0 0 Z " fill="#AE9C69" transform="translate(804,1003)"/>
<path d="M0 0 C1.5 1.375 1.5 1.375 3 3 C3 3.66 3 4.32 3 5 C0.36 4.67 -2.28 4.34 -5 4 C-3.36587557 2.29159719 -2.13093906 1.06546953 0 0 Z " fill="#F7F3E3" transform="translate(925,992)"/>
<path d="M0 0 C0.93423645 3.01031744 1.04449911 3.86650268 0 7 C-1.65 6.01 -3.3 5.02 -5 4 C-4.34 3.67 -3.68 3.34 -3 3 C-2.34 3.33 -1.68 3.66 -1 4 C-0.67 2.68 -0.34 1.36 0 0 Z " fill="#F3F4E6" transform="translate(463,977)"/>
<path d="M0 0 C2.31 0.33 4.62 0.66 7 1 C6.01 2.32 5.02 3.64 4 5 C2.68 3.35 1.36 1.7 0 0 Z " fill="#F9F9F5" transform="translate(426,952)"/>
<path d="M0 0 C1.32 0.66 2.64 1.32 4 2 C2.35 3.65 0.7 5.3 -1 7 C-1.33 5.68 -1.66 4.36 -2 3 C-1.01 2.67 -0.02 2.34 1 2 C0.67 1.34 0.34 0.68 0 0 Z " fill="#B19E62" transform="translate(981,937)"/>
<path d="M0 0 C0.99 0.33 1.98 0.66 3 1 C2.34 3.31 1.68 5.62 1 8 C0.67 8 0.34 8 0 8 C-1.125 2.25 -1.125 2.25 0 0 Z " fill="#A99455" transform="translate(1066,810)"/>
<path d="M0 0 C0.66 0.33 1.32 0.66 2 1 C1.1875 3.9375 1.1875 3.9375 0 7 C-0.99 7.33 -1.98 7.66 -3 8 C-1.125 2.25 -1.125 2.25 0 0 Z " fill="#F3ECD6" transform="translate(339,432)"/>
<path d="M0 0 C0.99 0.99 1.98 1.98 3 3 C2.67 3.99 2.34 4.98 2 6 C-0.5 4.625 -0.5 4.625 -3 3 C-3 2.34 -3 1.68 -3 1 C-2.01 0.67 -1.02 0.34 0 0 Z " fill="#AD995B" transform="translate(1054,423)"/>
<path d="M0 0 C0.8125 1.6875 0.8125 1.6875 1 4 C-1.4375 6.75 -1.4375 6.75 -4 9 C-2.94124926 5.59687262 -1.99097846 2.98646769 0 0 Z " fill="#F5ECDC" transform="translate(348,414)"/>
<path d="M0 0 C0.99 0 1.98 0 3 0 C3.66 1.98 4.32 3.96 5 6 C4.01 6 3.02 6 2 6 C1.34 4.02 0.68 2.04 0 0 Z " fill="#AD9F6D" transform="translate(924,412)"/>
<path d="M0 0 C2.475 0.99 2.475 0.99 5 2 C5 2.99 5 3.98 5 5 C4.01 5.495 4.01 5.495 3 6 C0 2.25 0 2.25 0 0 Z " fill="#F8F5E5" transform="translate(1024,376)"/>
<path d="M0 0 C1.65 1.65 3.3 3.3 5 5 C3.68 5.33 2.36 5.66 1 6 C-0.0625 4.125 -0.0625 4.125 -1 2 C-0.67 1.34 -0.34 0.68 0 0 Z " fill="#F9F9F1" transform="translate(883,354)"/>
<path d="M0 0 C0 0.66 0 1.32 0 2 C-0.99 2 -1.98 2 -3 2 C-3 2.66 -3 3.32 -3 4 C-4.98 4.99 -4.98 4.99 -7 6 C-7.66 5.34 -8.32 4.68 -9 4 C-2.25 0 -2.25 0 0 0 Z " fill="#F3EBD7" transform="translate(477,279)"/>
<path d="M0 0 C1.32 0.66 2.64 1.32 4 2 C3.01 2.495 3.01 2.495 2 3 C2.66 3.66 3.32 4.32 4 5 C1.03 4.505 1.03 4.505 -2 4 C-1.34 2.68 -0.68 1.36 0 0 Z " fill="#A89353" transform="translate(387,265)"/>
<path d="M0 0 C1.65 0 3.3 0 5 0 C4.67 1.32 4.34 2.64 4 4 C2.68 3.67 1.36 3.34 0 3 C0 2.01 0 1.02 0 0 Z " fill="#A1933C" transform="translate(543,242)"/>
</svg>
