<svg xmlns="http://www.w3.org/2000/svg" xmlns:v="https://svgstorm.com"
viewBox = "0 0 1000 1000"
width="1000"
height="1000">
<g fill="None" fill-opacity="0.0" stroke="#000000" stroke-opacity="0.00" stroke-width="0.3"><path d="
M 0.00 471.00 
C 7.58 349.20 58.37 234.02 146.25 146.25 C 234.13 58.48 349.91 6.96 472.00 0.00
L 0.00 0.00
L 0.00 471.00 Z"/>
</g>
<g fill="None" fill-opacity="0.0" stroke="#0D111C" stroke-opacity="1.00" stroke-width="0.3"><path d="
M 0.00 471.00 
L 0.00 475.00
C 1.56 477.61 1.72 483.46 0.00 486.00
L 0.00 509.00
C 1.61 513.26 1.70 520.81 0.00 525.00
L 0.00 529.00
C 3.31 590.75 21.79 661.52 48.31 715.70 C 74.82 769.87 102.77 810.53 145.75 853.25 C 188.73 895.97 228.70 925.15 283.08 950.92 C 337.45 976.70 407.19 999.00 470.00 999.00
C 473.84 999.00 478.99 998.18 482.00 1000.00
L 508.00 1000.00
C 512.26 998.39 519.81 998.30 524.00 1000.00
L 528.00 1000.00
C 649.95 992.98 765.39 941.77 853.25 854.25 C 941.11 766.73 992.54 651.09 1000.00 529.00
L 1000.00 488.00
C 998.42 484.73 998.29 478.20 1000.00 475.00
L 1000.00 471.00
C 992.49 349.41 941.77 234.48 854.25 146.75 C 766.72 59.03 651.60 7.71 530.00 0.00
L 472.00 0.00
C 349.91 6.96 234.13 58.48 146.25 146.25 C 58.37 234.02 7.58 349.20 0.00 471.00
M 805.00 246.00 
C 804.93 249.65 804.86 253.36 805.00 257.00
C 805.42 268.04 809.10 282.26 801.00 291.00
C 805.18 299.44 816.59 303.05 820.77 312.23 C 824.95 321.41 814.42 332.31 817.77 342.23 C 821.12 352.14 828.16 357.23 836.25 364.75 C 844.33 372.28 851.05 380.62 843.25 389.25 C 835.45 397.88 829.22 401.07 818.92 405.92 C 808.63 410.78 797.75 398.75 788.00 398.00
C 784.24 419.94 790.30 442.46 787.00 465.00
C 792.93 467.27 798.54 475.18 794.23 481.23 C 789.91 487.28 796.67 494.24 797.00 501.00
C 797.95 503.81 799.21 506.80 800.00 510.00
C 803.23 523.05 807.31 535.18 808.00 549.00 C 808.69 562.83 807.00 579.18 804.01 592.01 C 801.02 604.84 797.64 615.48 792.23 627.23 C 786.82 638.98 779.97 646.88 778.00 660.00 C 776.04 673.13 772.48 687.10 772.01 701.01 C 771.54 714.91 769.43 732.74 771.00 747.00 C 772.57 761.26 770.44 778.43 771.00 792.00 C 771.56 805.57 779.39 813.90 783.78 826.22 C 788.16 838.55 803.08 834.78 811.25 845.75 C 819.42 856.72 812.25 867.61 798.00 870.00
C 797.37 881.00 789.50 881.74 780.31 886.31 C 771.11 890.87 763.33 879.13 753.00 881.00 C 742.66 882.88 735.12 872.39 739.00 861.00
C 716.67 861.00 694.33 861.00 672.00 861.00
C 676.40 868.87 672.30 876.43 665.00 880.00
C 674.37 883.66 674.53 889.66 679.98 897.03 C 685.42 904.39 678.19 918.88 669.93 913.07 C 661.66 907.27 667.30 896.35 655.98 895.03 C 644.65 893.70 638.75 889.97 628.00 891.00 C 617.25 892.03 611.15 884.33 602.00 888.00
C 592.59 883.18 580.20 884.10 567.00 884.00 C 553.80 883.90 537.23 884.83 524.00 885.00 C 510.77 885.17 499.93 883.94 489.25 876.75 C 478.57 869.56 475.32 859.82 475.93 847.93 C 476.53 836.03 490.23 828.99 488.00 817.00 C 485.77 805.01 489.95 789.04 490.93 777.93 C 491.91 766.81 501.25 753.60 497.74 744.26 C 494.23 734.91 482.59 729.23 477.25 720.75 C 471.91 712.27 463.01 705.26 456.75 697.25 C 450.50 689.24 443.79 681.62 437.23 673.77 C 430.67 665.92 422.92 658.55 416.25 650.75 C 409.58 642.96 403.53 635.00 396.75 627.25 C 389.97 619.50 382.70 611.71 376.23 603.77 C 369.76 595.83 362.70 588.71 356.25 580.75 C 349.80 572.79 342.66 564.95 335.75 557.25 C 328.84 549.54 323.13 540.63 315.00 534.00
C 315.00 643.00 315.00 752.00 315.00 861.00
C 274.67 861.00 234.33 861.00 194.00 861.00
C 194.00 616.67 194.00 372.33 194.00 128.00
C 234.33 128.00 274.67 128.00 315.00 128.00
C 315.00 239.00 315.00 350.00 315.00 461.00
C 324.02 451.93 331.54 441.83 340.25 432.25 C 348.96 422.66 356.60 411.95 365.25 402.25 C 373.91 392.56 382.67 382.84 390.75 372.75 C 398.83 362.67 407.86 353.17 416.25 343.25 C 424.63 333.33 432.75 323.11 441.25 313.25 C 449.76 303.40 458.20 293.59 466.75 283.75 C 475.30 273.92 483.58 264.05 492.25 254.25 C 500.91 244.45 508.12 234.72 516.75 224.75 C 525.38 214.78 533.56 205.53 542.25 195.25 C 550.93 184.96 558.26 176.05 567.25 165.25 C 576.25 154.46 583.33 147.80 592.77 135.77 C 602.21 123.74 623.57 128.43 640.00 128.00 C 656.43 127.57 677.66 128.22 695.00 128.00 C 712.34 127.78 732.41 128.17 750.00 128.00
C 743.86 136.92 736.03 144.76 729.25 153.25 C 722.46 161.73 714.06 168.74 707.25 177.25 C 700.44 185.75 693.00 194.49 685.75 202.75 C 678.50 211.01 671.76 219.14 664.25 227.25 C 656.74 235.36 650.06 244.52 642.75 252.75 C 635.43 260.97 628.35 268.90 621.25 277.25 C 614.14 285.59 606.70 294.13 599.25 302.25 C 591.80 310.36 585.12 318.60 577.75 326.75 C 570.38 334.90 564.04 343.52 556.75 351.75 C 549.45 359.97 541.98 368.47 534.75 376.75 C 527.53 385.03 520.64 393.05 513.25 401.25 C 505.86 409.44 499.15 418.56 491.70 426.70 C 484.24 434.84 477.61 443.09 470.25 451.25 C 462.89 459.40 455.26 467.90 448.25 476.25 C 441.24 484.60 429.42 492.86 438.75 501.25 C 448.09 509.64 451.48 517.92 459.92 526.08 C 468.36 534.24 474.49 542.70 481.92 551.08 C 489.35 559.47 496.51 566.93 503.75 575.25 C 510.99 583.57 518.31 592.12 525.75 600.25 C 533.19 608.38 539.75 616.73 547.25 624.75 C 554.75 632.77 561.46 642.78 570.00 649.00
C 591.91 620.11 603.84 584.38 622.92 553.92 C 642.00 523.47 660.45 493.52 682.00 465.00
C 679.71 448.50 687.64 432.98 687.00 416.00 C 686.36 399.02 690.32 381.05 692.99 364.99 C 695.66 348.94 702.99 336.06 705.00 320.00
C 666.99 293.15 686.04 224.99 726.00 209.00
C 721.66 219.83 720.54 232.40 721.93 244.07 C 723.31 255.74 731.74 264.01 732.00 276.00
C 744.33 272.39 757.50 274.61 770.00 276.00
C 770.50 265.86 774.71 253.55 778.78 244.78 C 782.84 236.00 789.72 228.97 796.75 222.75 C 803.78 216.53 822.85 210.77 824.00 223.00
C 811.65 217.03 804.56 236.07 805.00 246.00 Z"/>
</g>
<g fill="None" fill-opacity="0.0" stroke="#000000" stroke-opacity="0.00" stroke-width="0.3"><path d="
M 1000.00 471.00 
L 1000.00 0.00
L 530.00 0.00
C 651.60 7.71 766.72 59.03 854.25 146.75 C 941.77 234.48 992.49 349.41 1000.00 471.00 Z"/>
</g>
<g fill="None" fill-opacity="0.0" stroke="#FEFEFE" stroke-opacity="1.00" stroke-width="0.3"><path d="
M 800.00 510.00 
C 799.02 507.17 797.78 504.23 797.00 501.00
C 796.67 494.24 789.91 487.28 794.23 481.23 C 798.54 475.18 792.93 467.27 787.00 465.00
C 790.30 442.46 784.24 419.94 788.00 398.00
C 797.75 398.75 808.63 410.78 818.92 405.92 C 829.22 401.07 835.45 397.88 843.25 389.25 C 851.05 380.62 844.33 372.28 836.25 364.75 C 828.16 357.23 821.12 352.14 817.77 342.23 C 814.42 332.31 824.95 321.41 820.77 312.23 C 816.59 303.05 805.18 299.44 801.00 291.00
C 809.10 282.26 805.42 268.04 805.00 257.00
C 804.48 253.35 804.57 249.56 805.00 246.00
C 804.56 236.07 811.65 217.03 824.00 223.00
C 822.85 210.77 803.78 216.53 796.75 222.75 C 789.72 228.97 782.84 236.00 778.78 244.78 C 774.71 253.55 770.50 265.86 770.00 276.00
C 757.50 274.61 744.33 272.39 732.00 276.00
C 731.74 264.01 723.31 255.74 721.93 244.07 C 720.54 232.40 721.66 219.83 726.00 209.00
C 686.04 224.99 666.99 293.15 705.00 320.00
C 702.99 336.06 695.66 348.94 692.99 364.99 C 690.32 381.05 686.36 399.02 687.00 416.00 C 687.64 432.98 679.71 448.50 682.00 465.00
C 660.45 493.52 642.00 523.47 622.92 553.92 C 603.84 584.38 591.91 620.11 570.00 649.00
C 561.46 642.78 554.75 632.77 547.25 624.75 C 539.75 616.73 533.19 608.38 525.75 600.25 C 518.31 592.12 510.99 583.57 503.75 575.25 C 496.51 566.93 489.35 559.47 481.92 551.08 C 474.49 542.70 468.36 534.24 459.92 526.08 C 451.48 517.92 448.09 509.64 438.75 501.25 C 429.42 492.86 441.24 484.60 448.25 476.25 C 455.26 467.90 462.89 459.40 470.25 451.25 C 477.61 443.09 484.24 434.84 491.70 426.70 C 499.15 418.56 505.86 409.44 513.25 401.25 C 520.64 393.05 527.53 385.03 534.75 376.75 C 541.98 368.47 549.45 359.97 556.75 351.75 C 564.04 343.52 570.38 334.90 577.75 326.75 C 585.12 318.60 591.80 310.36 599.25 302.25 C 606.70 294.13 614.14 285.59 621.25 277.25 C 628.35 268.90 635.43 260.97 642.75 252.75 C 650.06 244.52 656.74 235.36 664.25 227.25 C 671.76 219.14 678.50 211.01 685.75 202.75 C 693.00 194.49 700.44 185.75 707.25 177.25 C 714.06 168.74 722.46 161.73 729.25 153.25 C 736.03 144.76 743.86 136.92 750.00 128.00
C 732.41 128.17 712.34 127.78 695.00 128.00 C 677.66 128.22 656.43 127.57 640.00 128.00 C 623.57 128.43 602.21 123.74 592.77 135.77 C 583.33 147.80 576.25 154.46 567.25 165.25 C 558.26 176.05 550.93 184.96 542.25 195.25 C 533.56 205.53 525.38 214.78 516.75 224.75 C 508.12 234.72 500.91 244.45 492.25 254.25 C 483.58 264.05 475.30 273.92 466.75 283.75 C 458.20 293.59 449.76 303.40 441.25 313.25 C 432.75 323.11 424.63 333.33 416.25 343.25 C 407.86 353.17 398.83 362.67 390.75 372.75 C 382.67 382.84 373.91 392.56 365.25 402.25 C 356.60 411.95 348.96 422.66 340.25 432.25 C 331.54 441.83 324.02 451.93 315.00 461.00
C 315.00 350.00 315.00 239.00 315.00 128.00
C 274.67 128.00 234.33 128.00 194.00 128.00
C 194.00 372.33 194.00 616.67 194.00 861.00
C 234.33 861.00 274.67 861.00 315.00 861.00
C 315.00 752.00 315.00 643.00 315.00 534.00
C 323.13 540.63 328.84 549.54 335.75 557.25 C 342.66 564.95 349.80 572.79 356.25 580.75 C 362.70 588.71 369.76 595.83 376.23 603.77 C 382.70 611.71 389.97 619.50 396.75 627.25 C 403.53 635.00 409.58 642.96 416.25 650.75 C 422.92 658.55 430.67 665.92 437.23 673.77 C 443.79 681.62 450.50 689.24 456.75 697.25 C 463.01 705.26 471.91 712.27 477.25 720.75 C 482.59 729.23 494.23 734.91 497.74 744.26 C 501.25 753.60 491.91 766.81 490.93 777.93 C 489.95 789.04 485.77 805.01 488.00 817.00 C 490.23 828.99 476.53 836.03 475.93 847.93 C 475.32 859.82 478.57 869.56 489.25 876.75 C 499.93 883.94 510.77 885.17 524.00 885.00 C 537.23 884.83 553.80 883.90 567.00 884.00 C 580.20 884.10 592.59 883.18 602.00 888.00
C 611.15 884.33 617.25 892.03 628.00 891.00 C 638.75 889.97 644.65 893.70 655.98 895.03 C 667.30 896.35 661.66 907.27 669.93 913.07 C 678.19 918.88 685.42 904.39 679.98 897.03 C 674.53 889.66 674.37 883.66 665.00 880.00
C 672.30 876.43 676.40 868.87 672.00 861.00
C 694.33 861.00 716.67 861.00 739.00 861.00
C 735.12 872.39 742.66 882.88 753.00 881.00 C 763.33 879.13 771.11 890.87 780.31 886.31 C 789.50 881.74 797.37 881.00 798.00 870.00
C 812.25 867.61 819.42 856.72 811.25 845.75 C 803.08 834.78 788.16 838.55 783.78 826.22 C 779.39 813.90 771.56 805.57 771.00 792.00 C 770.44 778.43 772.57 761.26 771.00 747.00 C 769.43 732.74 771.54 714.91 772.01 701.01 C 772.48 687.10 776.04 673.13 778.00 660.00 C 779.97 646.88 786.82 638.98 792.23 627.23 C 797.64 615.48 801.02 604.84 804.01 592.01 C 807.00 579.18 808.69 562.83 808.00 549.00 C 807.31 535.18 803.23 523.05 800.00 510.00
M 710.00 710.00 
C 711.90 727.60 712.16 745.34 714.00 763.00 C 715.84 780.66 714.76 799.04 717.00 816.00
C 710.79 809.36 703.00 801.80 697.25 794.75 C 691.50 787.70 683.54 779.59 678.25 772.75 C 672.96 765.92 660.93 755.75 664.76 747.75 C 668.58 739.76 679.06 734.09 685.25 727.25 C 691.43 720.41 702.99 716.12 710.00 710.00
M 722.00 821.00 
C 719.67 820.86 717.06 818.39 717.00 816.00
C 718.66 817.74 722.23 817.97 722.00 821.00
M 523.00 865.00 
C 515.90 867.41 501.62 863.84 502.00 854.00
C 508.56 858.09 515.91 862.34 523.00 865.00 Z"/>
</g>
<g fill="None" fill-opacity="0.0" stroke="#8E939A" stroke-opacity="1.00" stroke-width="0.3"><path d="
M 805.00 257.00 
C 804.86 253.36 804.93 249.65 805.00 246.00
C 804.57 249.56 804.48 253.35 805.00 257.00 Z"/>
</g>
<g fill="None" fill-opacity="0.0" stroke="#0D111B" stroke-opacity="0.58" stroke-width="0.3"><path d="
M 0.00 486.00 
C 1.72 483.46 1.56 477.61 0.00 475.00
L 0.00 486.00 Z"/>
</g>
<g fill="None" fill-opacity="0.0" stroke="#0D111B" stroke-opacity="0.62" stroke-width="0.3"><path d="
M 1000.00 488.00 
L 1000.00 475.00
C 998.29 478.20 998.42 484.73 1000.00 488.00 Z"/>
</g>
<g fill="None" fill-opacity="0.0" stroke="#7E8289" stroke-opacity="1.00" stroke-width="0.3"><path d="
M 800.00 510.00 
C 799.21 506.80 797.95 503.81 797.00 501.00
C 797.78 504.23 799.02 507.17 800.00 510.00 Z"/>
</g>
<g fill="None" fill-opacity="0.0" stroke="#0C111C" stroke-opacity="0.69" stroke-width="0.3"><path d="
M 0.00 525.00 
C 1.70 520.81 1.61 513.26 0.00 509.00
L 0.00 525.00 Z"/>
</g>
<g fill="None" fill-opacity="0.0" stroke="#000000" stroke-opacity="0.00" stroke-width="0.3"><path d="
M 0.00 1000.00 
L 470.00 1000.00
C 470.00 999.50 470.00 999.00 470.00 999.00
C 407.19 999.00 337.45 976.70 283.08 950.92 C 228.70 925.15 188.73 895.97 145.75 853.25 C 102.77 810.53 74.82 769.87 48.31 715.70 C 21.79 661.52 3.31 590.75 0.00 529.00
L 0.00 1000.00 Z"/>
</g>
<g fill="None" fill-opacity="0.0" stroke="#000000" stroke-opacity="0.00" stroke-width="0.3"><path d="
M 528.00 1000.00 
L 1000.00 1000.00
L 1000.00 529.00
C 992.54 651.09 941.11 766.73 853.25 854.25 C 765.39 941.77 649.95 992.98 528.00 1000.00 Z"/>
</g>
<g fill="None" fill-opacity="0.0" stroke="#0E121D" stroke-opacity="1.00" stroke-width="0.3"><path d="
M 710.00 710.00 
C 702.99 716.12 691.43 720.41 685.25 727.25 C 679.06 734.09 668.58 739.76 664.76 747.75 C 660.93 755.75 672.96 765.92 678.25 772.75 C 683.54 779.59 691.50 787.70 697.25 794.75 C 703.00 801.80 710.79 809.36 717.00 816.00
C 714.76 799.04 715.84 780.66 714.00 763.00 C 712.16 745.34 711.90 727.60 710.00 710.00 Z"/>
</g>
<g fill="None" fill-opacity="0.0" stroke="#61656E" stroke-opacity="1.00" stroke-width="0.3"><path d="
M 722.00 821.00 
C 722.23 817.97 718.66 817.74 717.00 816.00
C 717.06 818.39 719.67 820.86 722.00 821.00 Z"/>
</g>
<g fill="None" fill-opacity="0.0" stroke="#1D212C" stroke-opacity="1.00" stroke-width="0.3"><path d="
M 523.00 865.00 
C 515.91 862.34 508.56 858.09 502.00 854.00
C 501.62 863.84 515.90 867.41 523.00 865.00 Z"/>
</g>
<g fill="None" fill-opacity="0.0" stroke="#0C111B" stroke-opacity="0.40" stroke-width="0.3"><path d="
M 470.00 1000.00 
L 482.00 1000.00
C 478.99 998.18 473.84 999.00 470.00 999.00
C 470.00 999.00 470.00 999.50 470.00 1000.00 Z"/>
</g>
<g fill="None" fill-opacity="0.0" stroke="#0D101C" stroke-opacity="0.70" stroke-width="0.3"><path d="
M 508.00 1000.00 
L 524.00 1000.00
C 519.81 998.30 512.26 998.39 508.00 1000.00 Z"/>
</g>
<g fill="#000000" fill-opacity="0.00" stroke="None">
<path d="
M 0.00 471.00 
C 7.58 349.20 58.37 234.02 146.25 146.25 C 234.13 58.48 349.91 6.96 472.00 0.00
L 0.00 0.00
L 0.00 471.00 Z"/>
</g>
<g fill="#0D111C" fill-opacity="1.00" stroke="None">
<path d="
M 0.00 471.00 
L 0.00 475.00
C 1.56 477.61 1.72 483.46 0.00 486.00
L 0.00 509.00
C 1.61 513.26 1.70 520.81 0.00 525.00
L 0.00 529.00
C 3.31 590.75 21.79 661.52 48.31 715.70 C 74.82 769.87 102.77 810.53 145.75 853.25 C 188.73 895.97 228.70 925.15 283.08 950.92 C 337.45 976.70 407.19 999.00 470.00 999.00
C 473.84 999.00 478.99 998.18 482.00 1000.00
L 508.00 1000.00
C 512.26 998.39 519.81 998.30 524.00 1000.00
L 528.00 1000.00
C 649.95 992.98 765.39 941.77 853.25 854.25 C 941.11 766.73 992.54 651.09 1000.00 529.00
L 1000.00 488.00
C 998.42 484.73 998.29 478.20 1000.00 475.00
L 1000.00 471.00
C 992.49 349.41 941.77 234.48 854.25 146.75 C 766.72 59.03 651.60 7.71 530.00 0.00
L 472.00 0.00
C 349.91 6.96 234.13 58.48 146.25 146.25 C 58.37 234.02 7.58 349.20 0.00 471.00
M 805.00 246.00 
C 804.93 249.65 804.86 253.36 805.00 257.00
C 805.42 268.04 809.10 282.26 801.00 291.00
C 805.18 299.44 816.59 303.05 820.77 312.23 C 824.95 321.41 814.42 332.31 817.77 342.23 C 821.12 352.14 828.16 357.23 836.25 364.75 C 844.33 372.28 851.05 380.62 843.25 389.25 C 835.45 397.88 829.22 401.07 818.92 405.92 C 808.63 410.78 797.75 398.75 788.00 398.00
C 784.24 419.94 790.30 442.46 787.00 465.00
C 792.93 467.27 798.54 475.18 794.23 481.23 C 789.91 487.28 796.67 494.24 797.00 501.00
C 797.95 503.81 799.21 506.80 800.00 510.00
C 803.23 523.05 807.31 535.18 808.00 549.00 C 808.69 562.83 807.00 579.18 804.01 592.01 C 801.02 604.84 797.64 615.48 792.23 627.23 C 786.82 638.98 779.97 646.88 778.00 660.00 C 776.04 673.13 772.48 687.10 772.01 701.01 C 771.54 714.91 769.43 732.74 771.00 747.00 C 772.57 761.26 770.44 778.43 771.00 792.00 C 771.56 805.57 779.39 813.90 783.78 826.22 C 788.16 838.55 803.08 834.78 811.25 845.75 C 819.42 856.72 812.25 867.61 798.00 870.00
C 797.37 881.00 789.50 881.74 780.31 886.31 C 771.11 890.87 763.33 879.13 753.00 881.00 C 742.66 882.88 735.12 872.39 739.00 861.00
C 716.67 861.00 694.33 861.00 672.00 861.00
C 676.40 868.87 672.30 876.43 665.00 880.00
C 674.37 883.66 674.53 889.66 679.98 897.03 C 685.42 904.39 678.19 918.88 669.93 913.07 C 661.66 907.27 667.30 896.35 655.98 895.03 C 644.65 893.70 638.75 889.97 628.00 891.00 C 617.25 892.03 611.15 884.33 602.00 888.00
C 592.59 883.18 580.20 884.10 567.00 884.00 C 553.80 883.90 537.23 884.83 524.00 885.00 C 510.77 885.17 499.93 883.94 489.25 876.75 C 478.57 869.56 475.32 859.82 475.93 847.93 C 476.53 836.03 490.23 828.99 488.00 817.00 C 485.77 805.01 489.95 789.04 490.93 777.93 C 491.91 766.81 501.25 753.60 497.74 744.26 C 494.23 734.91 482.59 729.23 477.25 720.75 C 471.91 712.27 463.01 705.26 456.75 697.25 C 450.50 689.24 443.79 681.62 437.23 673.77 C 430.67 665.92 422.92 658.55 416.25 650.75 C 409.58 642.96 403.53 635.00 396.75 627.25 C 389.97 619.50 382.70 611.71 376.23 603.77 C 369.76 595.83 362.70 588.71 356.25 580.75 C 349.80 572.79 342.66 564.95 335.75 557.25 C 328.84 549.54 323.13 540.63 315.00 534.00
C 315.00 643.00 315.00 752.00 315.00 861.00
C 274.67 861.00 234.33 861.00 194.00 861.00
C 194.00 616.67 194.00 372.33 194.00 128.00
C 234.33 128.00 274.67 128.00 315.00 128.00
C 315.00 239.00 315.00 350.00 315.00 461.00
C 324.02 451.93 331.54 441.83 340.25 432.25 C 348.96 422.66 356.60 411.95 365.25 402.25 C 373.91 392.56 382.67 382.84 390.75 372.75 C 398.83 362.67 407.86 353.17 416.25 343.25 C 424.63 333.33 432.75 323.11 441.25 313.25 C 449.76 303.40 458.20 293.59 466.75 283.75 C 475.30 273.92 483.58 264.05 492.25 254.25 C 500.91 244.45 508.12 234.72 516.75 224.75 C 525.38 214.78 533.56 205.53 542.25 195.25 C 550.93 184.96 558.26 176.05 567.25 165.25 C 576.25 154.46 583.33 147.80 592.77 135.77 C 602.21 123.74 623.57 128.43 640.00 128.00 C 656.43 127.57 677.66 128.22 695.00 128.00 C 712.34 127.78 732.41 128.17 750.00 128.00
C 743.86 136.92 736.03 144.76 729.25 153.25 C 722.46 161.73 714.06 168.74 707.25 177.25 C 700.44 185.75 693.00 194.49 685.75 202.75 C 678.50 211.01 671.76 219.14 664.25 227.25 C 656.74 235.36 650.06 244.52 642.75 252.75 C 635.43 260.97 628.35 268.90 621.25 277.25 C 614.14 285.59 606.70 294.13 599.25 302.25 C 591.80 310.36 585.12 318.60 577.75 326.75 C 570.38 334.90 564.04 343.52 556.75 351.75 C 549.45 359.97 541.98 368.47 534.75 376.75 C 527.53 385.03 520.64 393.05 513.25 401.25 C 505.86 409.44 499.15 418.56 491.70 426.70 C 484.24 434.84 477.61 443.09 470.25 451.25 C 462.89 459.40 455.26 467.90 448.25 476.25 C 441.24 484.60 429.42 492.86 438.75 501.25 C 448.09 509.64 451.48 517.92 459.92 526.08 C 468.36 534.24 474.49 542.70 481.92 551.08 C 489.35 559.47 496.51 566.93 503.75 575.25 C 510.99 583.57 518.31 592.12 525.75 600.25 C 533.19 608.38 539.75 616.73 547.25 624.75 C 554.75 632.77 561.46 642.78 570.00 649.00
C 591.91 620.11 603.84 584.38 622.92 553.92 C 642.00 523.47 660.45 493.52 682.00 465.00
C 679.71 448.50 687.64 432.98 687.00 416.00 C 686.36 399.02 690.32 381.05 692.99 364.99 C 695.66 348.94 702.99 336.06 705.00 320.00
C 666.99 293.15 686.04 224.99 726.00 209.00
C 721.66 219.83 720.54 232.40 721.93 244.07 C 723.31 255.74 731.74 264.01 732.00 276.00
C 744.33 272.39 757.50 274.61 770.00 276.00
C 770.50 265.86 774.71 253.55 778.78 244.78 C 782.84 236.00 789.72 228.97 796.75 222.75 C 803.78 216.53 822.85 210.77 824.00 223.00
C 811.65 217.03 804.56 236.07 805.00 246.00 Z"/>
</g>
<g fill="#000000" fill-opacity="0.00" stroke="None">
<path d="
M 1000.00 471.00 
L 1000.00 0.00
L 530.00 0.00
C 651.60 7.71 766.72 59.03 854.25 146.75 C 941.77 234.48 992.49 349.41 1000.00 471.00 Z"/>
</g>
<g fill="#FEFEFE" fill-opacity="1.00" stroke="None">
<path d="
M 800.00 510.00 
C 799.02 507.17 797.78 504.23 797.00 501.00
C 796.67 494.24 789.91 487.28 794.23 481.23 C 798.54 475.18 792.93 467.27 787.00 465.00
C 790.30 442.46 784.24 419.94 788.00 398.00
C 797.75 398.75 808.63 410.78 818.92 405.92 C 829.22 401.07 835.45 397.88 843.25 389.25 C 851.05 380.62 844.33 372.28 836.25 364.75 C 828.16 357.23 821.12 352.14 817.77 342.23 C 814.42 332.31 824.95 321.41 820.77 312.23 C 816.59 303.05 805.18 299.44 801.00 291.00
C 809.10 282.26 805.42 268.04 805.00 257.00
C 804.48 253.35 804.57 249.56 805.00 246.00
C 804.56 236.07 811.65 217.03 824.00 223.00
C 822.85 210.77 803.78 216.53 796.75 222.75 C 789.72 228.97 782.84 236.00 778.78 244.78 C 774.71 253.55 770.50 265.86 770.00 276.00
C 757.50 274.61 744.33 272.39 732.00 276.00
C 731.74 264.01 723.31 255.74 721.93 244.07 C 720.54 232.40 721.66 219.83 726.00 209.00
C 686.04 224.99 666.99 293.15 705.00 320.00
C 702.99 336.06 695.66 348.94 692.99 364.99 C 690.32 381.05 686.36 399.02 687.00 416.00 C 687.64 432.98 679.71 448.50 682.00 465.00
C 660.45 493.52 642.00 523.47 622.92 553.92 C 603.84 584.38 591.91 620.11 570.00 649.00
C 561.46 642.78 554.75 632.77 547.25 624.75 C 539.75 616.73 533.19 608.38 525.75 600.25 C 518.31 592.12 510.99 583.57 503.75 575.25 C 496.51 566.93 489.35 559.47 481.92 551.08 C 474.49 542.70 468.36 534.24 459.92 526.08 C 451.48 517.92 448.09 509.64 438.75 501.25 C 429.42 492.86 441.24 484.60 448.25 476.25 C 455.26 467.90 462.89 459.40 470.25 451.25 C 477.61 443.09 484.24 434.84 491.70 426.70 C 499.15 418.56 505.86 409.44 513.25 401.25 C 520.64 393.05 527.53 385.03 534.75 376.75 C 541.98 368.47 549.45 359.97 556.75 351.75 C 564.04 343.52 570.38 334.90 577.75 326.75 C 585.12 318.60 591.80 310.36 599.25 302.25 C 606.70 294.13 614.14 285.59 621.25 277.25 C 628.35 268.90 635.43 260.97 642.75 252.75 C 650.06 244.52 656.74 235.36 664.25 227.25 C 671.76 219.14 678.50 211.01 685.75 202.75 C 693.00 194.49 700.44 185.75 707.25 177.25 C 714.06 168.74 722.46 161.73 729.25 153.25 C 736.03 144.76 743.86 136.92 750.00 128.00
C 732.41 128.17 712.34 127.78 695.00 128.00 C 677.66 128.22 656.43 127.57 640.00 128.00 C 623.57 128.43 602.21 123.74 592.77 135.77 C 583.33 147.80 576.25 154.46 567.25 165.25 C 558.26 176.05 550.93 184.96 542.25 195.25 C 533.56 205.53 525.38 214.78 516.75 224.75 C 508.12 234.72 500.91 244.45 492.25 254.25 C 483.58 264.05 475.30 273.92 466.75 283.75 C 458.20 293.59 449.76 303.40 441.25 313.25 C 432.75 323.11 424.63 333.33 416.25 343.25 C 407.86 353.17 398.83 362.67 390.75 372.75 C 382.67 382.84 373.91 392.56 365.25 402.25 C 356.60 411.95 348.96 422.66 340.25 432.25 C 331.54 441.83 324.02 451.93 315.00 461.00
C 315.00 350.00 315.00 239.00 315.00 128.00
C 274.67 128.00 234.33 128.00 194.00 128.00
C 194.00 372.33 194.00 616.67 194.00 861.00
C 234.33 861.00 274.67 861.00 315.00 861.00
C 315.00 752.00 315.00 643.00 315.00 534.00
C 323.13 540.63 328.84 549.54 335.75 557.25 C 342.66 564.95 349.80 572.79 356.25 580.75 C 362.70 588.71 369.76 595.83 376.23 603.77 C 382.70 611.71 389.97 619.50 396.75 627.25 C 403.53 635.00 409.58 642.96 416.25 650.75 C 422.92 658.55 430.67 665.92 437.23 673.77 C 443.79 681.62 450.50 689.24 456.75 697.25 C 463.01 705.26 471.91 712.27 477.25 720.75 C 482.59 729.23 494.23 734.91 497.74 744.26 C 501.25 753.60 491.91 766.81 490.93 777.93 C 489.95 789.04 485.77 805.01 488.00 817.00 C 490.23 828.99 476.53 836.03 475.93 847.93 C 475.32 859.82 478.57 869.56 489.25 876.75 C 499.93 883.94 510.77 885.17 524.00 885.00 C 537.23 884.83 553.80 883.90 567.00 884.00 C 580.20 884.10 592.59 883.18 602.00 888.00
C 611.15 884.33 617.25 892.03 628.00 891.00 C 638.75 889.97 644.65 893.70 655.98 895.03 C 667.30 896.35 661.66 907.27 669.93 913.07 C 678.19 918.88 685.42 904.39 679.98 897.03 C 674.53 889.66 674.37 883.66 665.00 880.00
C 672.30 876.43 676.40 868.87 672.00 861.00
C 694.33 861.00 716.67 861.00 739.00 861.00
C 735.12 872.39 742.66 882.88 753.00 881.00 C 763.33 879.13 771.11 890.87 780.31 886.31 C 789.50 881.74 797.37 881.00 798.00 870.00
C 812.25 867.61 819.42 856.72 811.25 845.75 C 803.08 834.78 788.16 838.55 783.78 826.22 C 779.39 813.90 771.56 805.57 771.00 792.00 C 770.44 778.43 772.57 761.26 771.00 747.00 C 769.43 732.74 771.54 714.91 772.01 701.01 C 772.48 687.10 776.04 673.13 778.00 660.00 C 779.97 646.88 786.82 638.98 792.23 627.23 C 797.64 615.48 801.02 604.84 804.01 592.01 C 807.00 579.18 808.69 562.83 808.00 549.00 C 807.31 535.18 803.23 523.05 800.00 510.00
M 710.00 710.00 
C 711.90 727.60 712.16 745.34 714.00 763.00 C 715.84 780.66 714.76 799.04 717.00 816.00
C 710.79 809.36 703.00 801.80 697.25 794.75 C 691.50 787.70 683.54 779.59 678.25 772.75 C 672.96 765.92 660.93 755.75 664.76 747.75 C 668.58 739.76 679.06 734.09 685.25 727.25 C 691.43 720.41 702.99 716.12 710.00 710.00
M 722.00 821.00 
C 719.67 820.86 717.06 818.39 717.00 816.00
C 718.66 817.74 722.23 817.97 722.00 821.00
M 523.00 865.00 
C 515.90 867.41 501.62 863.84 502.00 854.00
C 508.56 858.09 515.91 862.34 523.00 865.00 Z"/>
</g>
<g fill="#8E939A" fill-opacity="1.00" stroke="None">
<path d="
M 805.00 257.00 
C 804.86 253.36 804.93 249.65 805.00 246.00
C 804.57 249.56 804.48 253.35 805.00 257.00 Z"/>
</g>
<g fill="#0D111B" fill-opacity="0.58" stroke="None">
<path d="
M 0.00 486.00 
C 1.72 483.46 1.56 477.61 0.00 475.00
L 0.00 486.00 Z"/>
</g>
<g fill="#0D111B" fill-opacity="0.62" stroke="None">
<path d="
M 1000.00 488.00 
L 1000.00 475.00
C 998.29 478.20 998.42 484.73 1000.00 488.00 Z"/>
</g>
<g fill="#7E8289" fill-opacity="1.00" stroke="None">
<path d="
M 800.00 510.00 
C 799.21 506.80 797.95 503.81 797.00 501.00
C 797.78 504.23 799.02 507.17 800.00 510.00 Z"/>
</g>
<g fill="#0C111C" fill-opacity="0.69" stroke="None">
<path d="
M 0.00 525.00 
C 1.70 520.81 1.61 513.26 0.00 509.00
L 0.00 525.00 Z"/>
</g>
<g fill="#000000" fill-opacity="0.00" stroke="None">
<path d="
M 0.00 1000.00 
L 470.00 1000.00
C 470.00 999.50 470.00 999.00 470.00 999.00
C 407.19 999.00 337.45 976.70 283.08 950.92 C 228.70 925.15 188.73 895.97 145.75 853.25 C 102.77 810.53 74.82 769.87 48.31 715.70 C 21.79 661.52 3.31 590.75 0.00 529.00
L 0.00 1000.00 Z"/>
</g>
<g fill="#000000" fill-opacity="0.00" stroke="None">
<path d="
M 528.00 1000.00 
L 1000.00 1000.00
L 1000.00 529.00
C 992.54 651.09 941.11 766.73 853.25 854.25 C 765.39 941.77 649.95 992.98 528.00 1000.00 Z"/>
</g>
<g fill="#0E121D" fill-opacity="1.00" stroke="None">
<path d="
M 710.00 710.00 
C 702.99 716.12 691.43 720.41 685.25 727.25 C 679.06 734.09 668.58 739.76 664.76 747.75 C 660.93 755.75 672.96 765.92 678.25 772.75 C 683.54 779.59 691.50 787.70 697.25 794.75 C 703.00 801.80 710.79 809.36 717.00 816.00
C 714.76 799.04 715.84 780.66 714.00 763.00 C 712.16 745.34 711.90 727.60 710.00 710.00 Z"/>
</g>
<g fill="#61656E" fill-opacity="1.00" stroke="None">
<path d="
M 722.00 821.00 
C 722.23 817.97 718.66 817.74 717.00 816.00
C 717.06 818.39 719.67 820.86 722.00 821.00 Z"/>
</g>
<g fill="#1D212C" fill-opacity="1.00" stroke="None">
<path d="
M 523.00 865.00 
C 515.91 862.34 508.56 858.09 502.00 854.00
C 501.62 863.84 515.90 867.41 523.00 865.00 Z"/>
</g>
<g fill="#0C111B" fill-opacity="0.40" stroke="None">
<path d="
M 470.00 1000.00 
L 482.00 1000.00
C 478.99 998.18 473.84 999.00 470.00 999.00
C 470.00 999.00 470.00 999.50 470.00 1000.00 Z"/>
</g>
<g fill="#0D101C" fill-opacity="0.70" stroke="None">
<path d="
M 508.00 1000.00 
L 524.00 1000.00
C 519.81 998.30 512.26 998.39 508.00 1000.00 Z"/>
</g>
</svg>