<svg width="2209" height="494" viewBox="0 0 2209 494" fill="none" xmlns="http://www.w3.org/2000/svg">
<path d="M194.175 426.456H0V487.185H194.175V426.456Z" fill="white"/>
<path d="M321.065 136.284C299.555 124.428 275.002 118.512 247.336 118.512C224.087 118.512 202.576 122.69 182.828 131.02C163.514 139.351 147.508 151.207 134.785 166.564V0H59.7516V307.026H0V367.755H194.175V307.026H134.785V284.4C134.785 251.923 142.897 227.124 159.145 210.004C175.827 192.45 198.206 183.66 226.284 183.66C254.361 183.66 276.523 192.45 292.771 210.004C309.019 227.124 317.13 251.923 317.13 284.4V487.161H391.512V273.196C391.512 240.284 385.139 212.202 372.416 188.924C360.103 165.671 342.987 148.116 321.065 136.284Z" fill="white"/>
<path d="M759.027 177.092C746.304 160.407 729.187 146.595 707.677 135.608C686.625 124.187 661.831 118.488 633.295 118.488C601.693 118.488 572.747 126.384 546.408 142.176C520.527 157.533 499.886 179.265 484.532 207.348C469.612 235.431 462.152 267.691 462.152 304.128C462.152 340.566 469.612 373.26 484.532 402.212C499.886 430.73 520.503 453.114 546.408 469.364C572.288 485.156 600.824 493.077 631.967 493.077C660.044 493.077 685.056 487.378 707.001 475.957C728.946 464.535 746.28 450.289 759.003 433.168V487.161H834.688V124.428H759.027V177.092ZM743.238 371.305C733.147 389.728 719.772 403.782 703.09 413.441C686.408 423.099 668.422 427.929 649.108 427.929C630.229 427.929 612.243 423.099 595.126 413.441C578.444 403.347 564.852 388.859 554.326 370.001C544.235 351.118 539.189 329.193 539.189 304.177C539.189 279.161 544.235 257.646 554.326 239.656C564.852 221.232 578.468 207.396 595.126 198.172C611.809 188.514 629.794 183.684 649.108 183.684C668.422 183.684 686.408 188.514 703.09 198.172C719.772 207.831 733.147 221.86 743.238 240.308C753.764 258.732 759.027 280.464 759.027 305.48C759.027 330.472 753.764 352.422 743.238 371.305Z" fill="white"/>
<path d="M1020.82 34.24H945.138V124.428H902.358V185.664H945.138V386.444C945.138 421.988 954.143 447.681 972.129 463.473C990.115 479.265 1016.02 487.185 1049.79 487.185H1109.01V424.645H1062.95C1047.6 424.645 1036.61 421.795 1030.05 416.097C1023.89 409.963 1020.82 400.087 1020.82 386.469V185.64H1109.01V124.428H1020.82V34.24Z" fill="white"/>
<path d="M1439.5 136.284C1417.98 124.428 1393.43 118.512 1365.79 118.512C1342.54 118.512 1321.03 122.69 1301.28 131.02C1281.97 139.351 1265.96 151.207 1253.22 166.564V0H1178.18V487.161H1253.22V284.4C1253.22 251.923 1261.35 227.124 1277.57 210.004C1294.26 192.45 1316.61 183.66 1344.71 183.66C1372.82 183.66 1394.95 192.45 1411.2 210.004C1427.42 227.124 1435.56 251.923 1435.56 284.4V487.161H1509.94V273.196C1509.94 240.284 1503.57 212.202 1490.85 188.924C1478.56 165.671 1461.44 148.116 1439.5 136.284Z" fill="white"/>
<path d="M1860.36 141.548C1832.29 126.191 1800.9 118.512 1766.23 118.512C1731.57 118.512 1700.18 126.191 1672.1 141.548C1644.03 156.906 1621.86 178.855 1605.64 207.372C1589.42 235.89 1581.28 268.608 1581.28 305.456C1581.28 342.763 1589.18 375.675 1604.99 404.216C1620.78 432.299 1642.51 454.249 1670.15 470.041C1697.79 485.398 1728.72 493.077 1762.95 493.077C1797.62 493.077 1829.22 485.398 1857.73 470.041C1886.7 454.249 1909.52 432.082 1926.18 403.54C1942.86 375.023 1951.19 342.304 1951.19 305.456C1951.19 268.584 1943.07 235.89 1926.83 207.372C1910.6 178.855 1888.44 156.906 1860.36 141.548ZM1858.38 372.608C1847.86 391.032 1834.03 404.868 1816.93 414.093C1800.25 423.317 1782.26 427.929 1762.95 427.929C1732.68 427.929 1707.45 417.401 1687.27 396.321C1667.52 374.806 1657.64 344.526 1657.64 305.48C1657.64 279.136 1662.47 256.994 1672.13 238.98C1681.79 220.556 1694.73 206.72 1710.97 197.496C1727.66 188.272 1745.64 183.66 1764.95 183.66C1784.24 183.66 1802.25 188.272 1818.91 197.496C1835.59 206.72 1848.97 220.532 1859.06 238.98C1869.15 256.97 1874.2 279.136 1874.2 305.48C1874.17 331.8 1868.91 354.184 1858.38 372.608Z" fill="white"/>
<path d="M2143.84 134.304C2125.85 144.398 2111.37 158.668 2100.41 177.092V124.428H2025.38V487.161H2100.41V296.232C2100.41 259.36 2107.87 233.475 2122.79 218.552C2138.14 203.63 2160.52 196.168 2189.93 196.168H2209V118.512C2183.99 118.512 2162.29 123.776 2143.84 134.304Z" fill="white"/>
</svg>
